<?xml version="1.0" encoding="UTF-8"?>
<svg width="24px" height="24px" viewBox="0 0 24 24" version="1.1" xmlns="http://www.w3.org/2000/svg" xmlns:xlink="http://www.w3.org/1999/xlink">
    <title>编组</title>
    <g id="2.NFT相关" stroke="none" stroke-width="1" fill="none" fill-rule="evenodd">
        <g id="NFT-Explore(4)" transform="translate(-268.000000, -665.000000)">
            <g id="编组" transform="translate(268.000000, 665.000000)">
                <path d="M12,24 C15.31368,24 18.31368,22.65684 20.48526,20.48526 C22.65684,18.31368 24,15.31368 24,12 C24,8.68632 22.65684,5.68632 20.48526,3.514716 C18.31368,1.343148 15.31368,0 12,0 C8.68632,0 5.68632,1.343148 3.514716,3.514716 C1.343148,5.68632 0,8.68632 0,12 C0,15.31368 1.343148,18.31368 3.514716,20.48526 C5.68632,22.65684 8.68632,24 12,24 Z" id="路径" fill="#6C56F1" fill-rule="nonzero"></path>
                <polyline id="路径" stroke="#FFFFFF" stroke-width="2" stroke-linecap="round" stroke-linejoin="round" points="7.2 12 10.8 15.6 18 8.4"></polyline>
            </g>
        </g>
    </g>
</svg>