<?xml version="1.0" encoding="UTF-8"?>
<svg width="32px" height="32px" viewBox="0 0 32 32" version="1.1" xmlns="http://www.w3.org/2000/svg" xmlns:xlink="http://www.w3.org/1999/xlink">
    <title>编组备份 6</title>
    <g id="1.首页相关" stroke="none" stroke-width="1" fill="none" fill-rule="evenodd">
        <g id="Home-1920" transform="translate(-1101.000000, -1442.000000)" fill-rule="nonzero">
            <g id="编组备份-6" transform="translate(1117.000000, 1458.000000) scale(-1, 1) rotate(-270.000000) translate(-1117.000000, -1458.000000) translate(1102.000000, 1443.000000)">
                <path d="M15,30 C23.284275,30 30,23.284275 30,15 C30,6.715725 23.284275,0 15,0 C6.715725,0 0,6.715725 0,15 C0,23.284275 6.715725,30 15,30 Z" id="路径" stroke-opacity="0.5" stroke="#5945DE" fill-opacity="0.1" fill="#5945DE"></path>
                <g id="编组-50" transform="translate(8.057312, 8.687500)" fill="#6C56F1">
                    <path d="M7.23789944,0.209704612 L7.33210678,0.292893219 L12.9571068,5.91789322 C12.9855731,5.94635953 13.0123312,5.97653408 13.037214,6.00824992 L12.9571068,5.91789322 C12.9925008,5.95328727 13.024687,5.99067442 13.0536654,6.02969339 C13.0715099,6.05386931 13.0882813,6.07872505 13.1039326,6.10433981 C13.1113931,6.11638689 13.1185012,6.12860556 13.1253288,6.1409379 C13.1362061,6.16070605 13.1466234,6.1811086 13.1563462,6.20190085 C13.164321,6.2189015 13.1718036,6.23620435 13.1787745,6.25366398 C13.1866843,6.2734208 13.1938775,6.29320232 13.2004533,6.31326359 C13.2052713,6.32814866 13.2099023,6.34353672 13.2141549,6.35900703 C13.2201664,6.38056352 13.2253602,6.40225392 13.2298348,6.4242059 C13.2332978,6.44162474 13.2363719,6.45905099 13.2389822,6.47653313 C13.2420328,6.49647534 13.2444666,6.51711395 13.2462623,6.53793499 C13.2478436,6.55673451 13.2489053,6.57473363 13.2494829,6.59274538 C13.2498183,6.60278921 13.25,6.61387338 13.25,6.625 L13.2494506,6.65824678 C13.2488772,6.67559097 13.247855,6.69292309 13.246384,6.71022423 L13.25,6.625 C13.25,6.67562028 13.2462388,6.72536209 13.2389807,6.77396122 C13.2363719,6.79094901 13.2332978,6.80837526 13.2297599,6.82572576 C13.2253602,6.84774608 13.2201664,6.86943648 13.214279,6.89083961 C13.2099023,6.90646328 13.2052713,6.92185134 13.2002619,6.93714252 C13.1938775,6.95679768 13.1866843,6.9765792 13.178896,6.99605852 C13.1718036,7.01379565 13.164321,7.0310985 13.1563266,7.04822155 C13.1466234,7.0688914 13.1362061,7.08929395 13.1251242,7.10927695 C13.1185012,7.12139444 13.1113931,7.13361311 13.1040045,7.14570875 C13.0882813,7.17127495 13.0715099,7.19613069 13.0536865,7.2201593 C13.0492821,7.22620864 13.0448255,7.23207334 13.0402954,7.23789944 C13.0349289,7.24466276 13.0326279,7.24756244 13.0303112,7.25044899 L12.9571068,7.33210678 L7.33210678,12.9571068 C6.94158249,13.3476311 6.30841751,13.3476311 5.91789322,12.9571068 C5.55740926,12.5966228 5.52967972,12.0293918 5.83470461,11.6371006 L5.91789322,11.5428932 L9.835,7.625 L1,7.625 C0.44771525,7.625 0,7.17728475 0,6.625 C0,6.11216416 0.38604019,5.68949284 0.883378875,5.63172773 L1,5.625 L9.835,5.625 L5.91789322,1.70710678 C5.55740926,1.34662282 5.52967972,0.779391764 5.83470461,0.387100557 L5.91789322,0.292893219 C6.27837718,-0.0675907428 6.84560824,-0.0953202783 7.23789944,0.209704612 Z" id="形状结合"></path>
                </g>
            </g>
        </g>
    </g>
</svg>