<?xml version="1.0" encoding="UTF-8"?>
<svg width="180px" height="60px" viewBox="0 0 180 60" version="1.1" xmlns="http://www.w3.org/2000/svg" xmlns:xlink="http://www.w3.org/1999/xlink">
    <title>Home 1920备份</title>
    <g id="1.首页相关" stroke="none" stroke-width="1" fill="none" fill-rule="evenodd">
        <g id="Home-1920" transform="translate(-656.000000, -4122.000000)" fill="#5A46DF">
            <g id="编组-41" transform="translate(656.000000, 4122.000000)">
                <g id="Shape-2" transform="translate(36.000000, 14.580645)">
                    <path d="M7.71966481,7.91953125 L15.0050985,7.91953125 C16.5731554,7.91953125 17.7311051,8.30703125 18.5271955,8.9609375 C19.3956578,9.6875 19.829889,10.65625 19.829889,11.8671875 C19.829889,13.36875 19.0579225,14.3375 17.7069811,14.8460937 L17.7069811,14.91875 C19.34741,15.4273437 20.4088639,16.8320312 20.4088639,18.6242187 C20.4088639,20.15 19.854013,21.2640625 18.8649309,22.0148437 C17.9723447,22.7171875 16.742023,23.1046875 15.1498422,23.1046875 L7.71966481,23.1046875 L7.71966481,7.91953125 Z M14.4502476,13.9257813 C15.5358255,13.9257813 16.259544,13.3929688 16.259544,12.4 C16.259544,11.4554688 15.5599493,10.8984375 14.4743715,10.8984375 L11.4106296,10.8984375 L11.4106296,13.9257813 L14.4502476,13.9257813 Z M14.7638589,20.0773438 C15.9941805,20.0773438 16.742023,19.375 16.742023,18.2851563 C16.742023,17.0742188 15.8494368,16.46875 14.715611,16.46875 L11.4106296,16.46875 L11.4106296,20.0773438 L14.7638589,20.0773438 Z M21.856301,7.91953125 L25.3060262,7.91953125 L25.3060262,10.7289062 L21.856301,10.7289062 L21.856301,7.91953125 Z M21.856301,12.2304688 L25.3060262,12.2304688 L25.3060262,23.0804688 L21.856301,23.0804688 L21.856301,12.2304688 Z M27.8390412,20.2226562 L27.8390412,14.3859375 L26.3916041,14.3859375 L26.3916041,12.2304687 L27.8390412,12.2304687 L27.8390412,8.79140625 L31.1922706,8.79140625 L31.1922706,12.2304687 L33.1463108,12.2304687 L33.1463108,14.3859375 L31.1922706,14.3859375 L31.1922706,19.471875 C31.1922706,20.3195312 31.6506257,20.5375 32.3984683,20.5375 C32.6879557,20.5375 33.556418,20.5132812 33.6770378,20.5132812 C33.6770378,20.5132812 33.6770378,23.0320312 33.6770378,23.0320312 C33.3875503,23.1289062 32.2054767,23.2015625 31.2887664,23.2015625 C29.2864783,23.2015625 27.8390412,22.5476562 27.8390412,20.2226562 Z M36.4271684,11.0921875 L32.5673359,11.0921875 L32.5673359,7.91953125 L44.0985852,7.91953125 L44.0985852,11.0921875 L40.1663809,11.0921875 L40.1663809,23.0804687 L36.4271684,23.0804687 L36.4271684,11.0921875 Z M41.7826858,17.6796875 C41.7826858,14.4101562 44.0985852,11.9398437 47.5724344,11.9398437 C51.0462836,11.9398437 53.338059,14.4101562 53.338059,17.6796875 C53.338059,20.9492187 51.0462836,23.4195312 47.5724344,23.4195312 C44.0985852,23.4195312 41.7826858,20.9492187 41.7826858,17.6796875 Z M49.840086,17.6796875 C49.840086,15.7179688 49.0439955,14.3617188 47.5483104,14.3617188 C46.0526253,14.3617188 45.256535,15.69375 45.256535,17.6796875 C45.256535,19.665625 46.0285015,20.9734375 47.5483104,20.9734375 C49.0439955,20.9492188 49.840086,19.6414063 49.840086,17.6796875 Z M54.5442567,12.2304688 L57.8492382,12.2304688 L57.8492382,13.9257813 L57.92161,13.9257813 C58.6935766,12.6421875 59.6344107,12.109375 60.6234927,12.0609375 C60.9371041,12.0367188 61.1542196,12.0851563 61.2989634,12.1578125 L61.2989634,15.1367188 L61.2024676,15.1367188 C59.3931711,14.8945313 57.9939819,15.8875 57.9939819,18.2367188 L57.9939819,23.1046875 L54.5442567,23.1046875 L54.5442567,12.2304688 Z M62.3121694,12.2304688 L65.6171509,12.2304688 L65.6171509,13.9257813 L65.6895227,13.9257813 C66.4614892,12.6421875 67.4023234,12.109375 68.3914055,12.0609375 C68.7050168,12.0367188 68.9221324,12.0851563 69.0668761,12.1578125 L69.0668761,15.1367188 L68.9703803,15.1367188 C67.1610838,14.8945313 65.7618946,15.8875 65.7618946,18.2367188 L65.7618946,23.1046875 L62.3121694,23.1046875 L62.3121694,12.2304688 Z M69.1633719,17.63125 C69.1633719,14.3859375 71.4310235,11.915625 74.711881,11.915625 C76.2558139,11.915625 77.4861355,12.4242188 78.4028458,13.271875 C79.6814153,14.4585938 80.3327619,16.3476563 80.308638,18.5515625 C80.284514,18.5515625 72.5407252,18.5515625 72.5407252,18.5515625 C72.7578408,20.0046875 73.5539313,20.925 74.9772445,20.925 C75.8939547,20.925 76.4729295,20.5132813 76.7624169,19.8351563 L80.1156463,19.8351563 C79.8744069,20.8039063 79.2471841,21.7484375 78.30635,22.4023438 C77.3896397,23.0320313 76.3040619,23.3953125 74.9289966,23.3953125 C71.3586516,23.3953125 69.1633719,20.925 69.1633719,17.63125 Z M76.8106649,16.4929688 C76.6900451,15.209375 75.8698307,14.3617188 74.7601289,14.3617188 C73.4574355,14.3617188 72.7819648,15.1851563 72.5407252,16.4929688 L76.8106649,16.4929688 Z M81.4907116,12.2304688 L84.7956931,12.2304688 L84.7956931,13.7078125 L84.868065,13.7078125 C85.6641555,12.5453125 86.7014854,11.915625 88.1971705,11.915625 C90.5613178,11.915625 91.960507,13.6109375 91.960507,16.0328125 L91.960507,23.1046875 L88.5349058,23.1046875 L88.5349058,16.7109375 C88.5349058,15.5726563 87.9559309,14.7734375 86.8462291,14.7734375 C85.7124033,14.7734375 84.9404369,15.7179688 84.9404369,17.0742188 L84.9404369,23.0804688 L81.4907116,23.0804688 L81.4907116,12.2304688 Z M94.0834149,20.2226562 L94.0834149,14.3859375 L92.6359777,14.3859375 L92.6359777,12.2304687 L94.0834149,12.2304687 L94.0834149,8.79140625 L97.4366443,8.79140625 L97.4366443,12.2304687 L99.3906847,12.2304687 L99.3906847,14.3859375 L97.4366443,14.3859375 L97.4366443,19.471875 C97.4366443,20.3195312 97.8949996,20.5375 98.6428421,20.5375 C98.9323294,20.5375 99.8007913,20.5132812 99.9214117,20.5132812 C99.9214117,20.5132812 99.9214117,23.0320312 99.9214117,23.0320312 C99.6319244,23.1289062 98.4498499,23.2015625 97.5331401,23.2015625 C95.5067281,23.2015625 94.0834149,22.5476562 94.0834149,20.2226562 Z M0,0 L0,31 L107.592828,31 L107.592828,0 L0,0 Z M104.697954,28.09375 L2.89487431,28.09375 L2.89487431,2.90625 L104.697954,2.90625 L104.697954,28.09375 Z" id="Shape"></path>
                </g>
            </g>
        </g>
    </g>
</svg>