<?xml version="1.0" encoding="UTF-8"?>
<svg width="180px" height="60px" viewBox="0 0 180 60" version="1.1" xmlns="http://www.w3.org/2000/svg" xmlns:xlink="http://www.w3.org/1999/xlink">
    <title>Home 1920备份</title>
    <g id="1.首页相关" stroke="none" stroke-width="1" fill="none" fill-rule="evenodd">
        <g id="Home-1920" transform="translate(-1420.000000, -4122.000000)">
            <g id="编组-59" transform="translate(1420.000000, 4122.000000)">
                <g id="编组" transform="translate(16.000000, 22.582769)">
                    <g transform="translate(0.000000, 17.948513)" fill="#5A46DF" id="路径" opacity="0.799999952">
                        <g>
                            <path d="M0.926837661,2.82810256 C0.912821213,2.79671795 0.895300652,2.76882051 0.881284203,2.7374359 C0.895300652,2.76882051 0.9093171,2.80020513 0.926837661,2.82810256 Z"></path>
                            <path d="M0.741119718,2.45148718 C0.727103269,2.42358974 0.713086821,2.39220513 0.702574484,2.36430769 C0.716590933,2.39569231 0.730607381,2.42358974 0.741119718,2.45148718 Z"></path>
                            <path d="M0.558905886,2.00164103 C0.544889438,1.96676923 0.534377101,1.93189744 0.523864765,1.89702564 C0.534377101,1.93189744 0.54839355,1.96676923 0.558905886,2.00164103 Z"></path>
                            <path d="M0.176957663,0.20225641 C0.176957663,0.184820513 0.173453551,0.163897436 0.173453551,0.146461538 C0.173453551,0.163897436 0.176957663,0.181333333 0.176957663,0.20225641 Z"></path>
                            <path d="M0.226015233,0.655589744 C0.222511121,0.641641026 0.222511121,0.624205128 0.219007009,0.61025641 C0.222511121,0.624205128 0.222511121,0.638153846 0.226015233,0.655589744 Z"></path>
                            <path d="M0.429253737,1.60410256 C0.418741401,1.56923077 0.408229064,1.53087179 0.397716728,1.49251282 C0.408229064,1.53087179 0.418741401,1.56574359 0.429253737,1.60410256 Z"></path>
                            <path d="M9.97795932,5.77128205 C9.96744698,5.77825641 9.95343053,5.78174359 9.9429182,5.78871795 C9.95343053,5.78174359 9.96744698,5.77825641 9.97795932,5.77128205 Z"></path>
                        </g>
                    </g>
                    <g transform="translate(54.627188, 0.000000)">
                        <g></g>
                        <g id="编组" transform="translate(52.919269, 0.000000)"></g>
                    </g>
                </g>
                <g id="横版反白" transform="translate(10.000000, 12.193548)">
                    <g id="形状结合" fill="#5A46DF">
                        <path d="M30.7243386,0.000483613763 L30.9693181,0.00836432993 C33.5329912,0.163516859 35.5212101,2.43069686 35.5212101,5.15158944 L35.5212101,5.15158944 L35.5208413,29.8770151 L35.5137918,30.1359796 C35.3737283,32.8446276 33.2736878,35 30.692283,35 L30.692283,35 L4.79687399,34.9995165 L4.55187994,34.991636 C1.98810649,34.8364888 0,32.5693574 0,29.8484106 L0,29.8484106 L0.000368671067,5.12298774 L0.00741744592,4.86402609 C0.147469869,2.15532192 2.2474003,0 4.82892712,0 L4.82892712,0 L30.7243386,0.000483613763 Z M30.692283,2.1875 L4.82892712,2.1875 C3.42572356,2.1875 2.24209959,3.40234534 2.16171064,4.94992336 L2.16171064,4.94992336 L2.15614207,5.15158944 L2.15614207,29.8484106 C2.15614207,31.4382502 3.28318727,32.7234729 4.6481234,32.80656 L4.6481234,32.80656 L4.82892712,32.8125 L17.477,32.812 L7.46712661,8.07513298 L33.365,12.755 L33.365068,5.15158944 C33.365068,3.62296301 32.3229606,2.37584727 31.0294454,2.20831118 L30.8730674,2.19343991 L30.692283,2.1875 Z M12.0814445,13.3111702 L19.995,32.812 L26.857,32.812 L27.6991359,25.9949059 L12.0814445,13.3111702 Z M33.365,26.279 L29.6647805,26.9370509 L28.94,32.812 L29.273,32.812 L33.365,27.677 L33.365,26.279 Z M64.0109213,6.32408193 L64.0109213,9.4882541 L56.3668965,9.48808193 L56.3670226,28.7609392 L53.2060119,28.7609392 L53.2058965,9.48808193 L46.0218965,9.4882541 L46.0218965,6.32408193 L64.0109213,6.32408193 Z M109.529476,6.32408193 L109.528897,25.5960819 L118.955035,25.596767 L118.955035,28.7609392 L106.368465,28.7609392 L106.368465,6.32408193 L109.529476,6.32408193 Z M147.806442,6.32408193 L147.806442,28.7609392 L144.645432,28.7609392 L144.645432,6.32408193 L147.806442,6.32408193 Z M152.84511,17.0822673 L160.393013,28.7609392 L156.273912,28.7609392 L148.726009,17.0822673 L152.84511,17.0822673 Z M125.277057,15.759068 L125.277057,28.7609392 L122.116046,28.7609392 L122.116046,15.759068 L125.277057,15.759068 Z M79.8900453,13.9790097 C83.9827302,13.9790097 87.3000826,17.2882894 87.3000826,21.3699744 C87.3000826,25.4519595 83.9827302,28.7609392 79.8900453,28.7609392 C75.7973604,28.7609392 72.4797072,25.4519595 72.4797072,21.3699744 C72.4797072,17.2882894 75.7973604,13.9790097 79.8900453,13.9790097 Z M97.0157359,12.9231576 C101.335211,12.9231576 103.464071,15.6314187 103.552705,19.3426122 L103.555595,19.5860509 L103.555595,28.7038618 L100.227076,28.6183545 L100.227076,19.5860509 C100.227076,17.146566 98.3455834,16.0907139 97.0157359,16.0907139 C95.7274461,16.0907139 93.8494313,16.8937747 93.7333134,19.3437836 L93.7276554,19.5860509 L93.7276554,28.6183545 L90.4758773,28.7038618 L90.4758773,19.5860509 C90.4758773,16.0907139 92.6023592,12.9231576 97.0157359,12.9231576 Z M135.125273,12.9231576 C139.444748,12.9231576 141.573607,15.6314187 141.662242,19.3426122 L141.665131,19.5860509 L141.665131,28.7038618 L138.336613,28.6183545 L138.336613,19.5860509 C138.336613,17.146566 136.45512,16.0907139 135.125273,16.0907139 C133.836983,16.0907139 131.958968,16.8937747 131.84285,19.3437836 L131.837192,19.5860509 L131.837192,28.6183545 L128.585414,28.7038618 L128.585414,19.5860509 C128.585414,16.0907139 130.711896,12.9231576 135.125273,12.9231576 Z M70.5773835,12.9237933 L70.5773835,16.5704091 C70.5684193,16.5704091 70.5597442,16.5691376 70.5510691,16.5691376 C68.6949861,16.5691376 67.1482969,18.114005 66.903061,20.0824906 L66.882375,20.2875922 L66.882375,28.7038618 L64.0109213,28.7038618 L64.0109213,19.5860509 C64.2897065,15.9869039 67.003831,13.0560338 70.3237909,12.9275502 L70.5510691,12.9231576 L70.5773835,12.9237933 Z M79.8900453,16.9903102 C77.4647617,16.9903102 75.4986001,18.9513315 75.4986001,21.3699744 C75.4986001,23.7889174 77.4647617,25.7499387 79.8900453,25.7499387 C82.3153289,25.7499387 84.2811897,23.7889174 84.2811897,21.3699744 C84.2811897,18.9513315 82.3153289,16.9903102 79.8900453,16.9903102 Z M33.365,22.698 L31.6035588,24.1323138 L33.365,23.82 L33.365,22.698 Z M13.5012347,11.5658245 L28.4866833,23.4341755 L33.365,19.552 L33.365,15.056 L13.5012347,11.5658245 Z M79.8898949,19.7861963 C80.7670099,19.7861963 81.4777923,20.4954562 81.4777923,21.3699744 C81.4777923,22.2448141 80.7670099,22.9537526 79.8898949,22.9537526 C79.0131022,22.9537526 78.3019975,22.2448141 78.3019975,21.3699744 C78.3019975,20.4954562 79.0131022,19.7861963 79.8898949,19.7861963 Z M155.845294,9.4307237 L159.473446,9.44048171 L152.736436,17.0822673 L148.668536,17.0709354 L155.845294,9.4307237 Z M123.821858,10.8114534 C124.698673,10.8114534 125.409619,11.5206159 125.409619,12.3952315 C125.409619,13.2701193 124.698673,13.9790097 123.821858,13.9790097 C122.94477,13.9790097 122.233824,13.2701193 122.233824,12.3952315 C122.233824,11.5206159 122.94477,10.8114534 123.821858,10.8114534 Z"></path>
                    </g>
                    <g id="Group-21" transform="translate(64.010921, 10.811453)"></g>
                </g>
            </g>
        </g>
    </g>
</svg>