<?xml version="1.0" encoding="UTF-8"?>
<svg width="180px" height="60px" viewBox="0 0 180 60" version="1.1" xmlns="http://www.w3.org/2000/svg" xmlns:xlink="http://www.w3.org/1999/xlink">
    <title>Home 1920</title>
    <g id="1.首页相关" stroke="none" stroke-width="1" fill="none" fill-rule="evenodd">
        <g id="Home-1920" transform="translate(-320.000000, -4122.000000)" fill="#5A46DF">
            <g id="编组-40" transform="translate(320.000000, 4122.000000)">
                <g id="形状结合-2" transform="translate(27.000000, 11.000000)">
                    <path d="M0,0 L28.6478512,5.1416407 L36.0843535,12.0372207 L15.0778164,37 L0,0 Z M32.258701,13.508581 L18.9867258,15.8528508 L17.0351851,31.5985164 L32.258701,13.508581 Z M3.91390475,4.31988764 L15.0220343,31.5806522 L17.0801438,14.9710091 L3.91390475,4.31988764 Z M109.296186,7.61396436 L124.387323,23.9702607 L124.387323,8.941599 L126.521196,8.941599 L126.521196,29.435893 L111.430059,13.0804086 L111.430059,28.1171904 L109.296186,28.1171904 L109.296186,7.61396436 Z M113.157222,17.6961111 L115.291095,20.0095246 L115.291095,28.1174341 L113.157222,28.1174341 L113.157222,17.6961111 Z M75.9703814,8.9414366 C79.2723483,8.9414366 81.959047,11.5788417 81.959047,14.8195694 C81.959047,17.3416692 80.2672677,19.6226024 77.8311721,20.406191 L77.8311721,20.406191 L82.0256525,28.117028 L79.5862266,28.117028 L75.5682508,20.7001383 L70.6486033,20.7001383 L70.6486033,28.117028 L68.549698,28.117028 L68.549698,18.6173353 L76.0120099,18.6205833 C78.1100826,18.5986591 79.8101876,16.9015604 79.8101876,14.8195694 C79.8101876,12.7270223 78.0884358,11.0250516 75.9703814,11.0250516 L75.9703814,11.0250516 L66.8246159,11.0250516 L66.8246159,28.117028 L64.7257106,28.117028 L64.7257106,8.9414366 Z M95.4911167,8.92958127 C100.91197,8.92958127 105.322086,13.2307927 105.322086,18.517783 C105.322086,23.8047733 100.91197,28.1051727 95.4911167,28.1051727 C90.0702628,28.1051727 85.6601472,23.8047733 85.6601472,18.517783 C85.6601472,13.2307927 90.0702628,8.92958127 95.4911167,8.92958127 Z M50.9416225,14.6366238 L50.9416225,28.0972962 L48.8302286,28.0972962 L48.8302286,14.6366238 L50.9416225,14.6366238 Z M54.7622795,14.6366238 L54.7622795,28.0972962 L52.6500531,28.0972962 L52.6500531,14.6366238 L54.7622795,14.6366238 Z M95.4911167,10.995332 C91.2383565,10.995332 87.7782016,14.3700413 87.7782016,18.517783 C87.7782016,22.6655247 91.2383565,26.0394219 95.4911167,26.0394219 C99.7438768,26.0394219 103.203199,22.6655247 103.203199,18.517783 C103.203199,14.3700413 99.7438768,10.995332 95.4911167,10.995332 Z M95.4911167,17.1355002 C96.272066,17.1355002 96.9081483,17.755875 96.9081483,18.5175394 C96.9081483,19.2792038 96.272066,19.8995786 95.4911167,19.8995786 C94.7101674,19.8995786 94.074085,19.2792038 94.074085,18.5175394 C94.074085,17.755875 94.7101674,17.1355002 95.4911167,17.1355002 Z M28.1874408,7.40795769 L20.5835922,13.5873458 L32.5692491,11.4704385 L28.1874408,7.40795769 Z M5.34592265,2.94353246 L17.9801504,13.1634772 L25.9944552,6.65035333 L5.34592265,2.94353246 Z M60.4104246,8.94119299 L60.4104246,11.0012597 L43.1804185,11.0012597 L43.1804185,8.94119299 L60.4104246,8.94119299 Z" id="形状结合"></path>
                </g>
            </g>
        </g>
    </g>
</svg>