<?xml version="1.0" encoding="UTF-8"?>
<svg width="180px" height="60px" viewBox="0 0 180 60" version="1.1" xmlns="http://www.w3.org/2000/svg" xmlns:xlink="http://www.w3.org/1999/xlink">
    <title>Home 1920备份</title>
    <g id="1.首页相关" stroke="none" stroke-width="1" fill="none" fill-rule="evenodd">
        <g id="Home-1920" transform="translate(-1052.000000, -4122.000000)">
            <g id="编组-45" transform="translate(1052.000000, 4122.000000)">
                <g id="编组" transform="translate(16.000000, 13.000000)">
                    <g fill="#5A46DF">
                        <g transform="translate(0.000000, 27.531282)" id="路径" opacity="0.799999952">
                            <path d="M0.926837661,2.82810256 C0.912821213,2.79671795 0.895300652,2.76882051 0.881284203,2.7374359 C0.895300652,2.76882051 0.9093171,2.80020513 0.926837661,2.82810256 Z"></path>
                            <path d="M0.741119718,2.45148718 C0.727103269,2.42358974 0.713086821,2.39220513 0.702574484,2.36430769 C0.716590933,2.39569231 0.730607381,2.42358974 0.741119718,2.45148718 Z"></path>
                            <path d="M0.558905886,2.00164103 C0.544889438,1.96676923 0.534377101,1.93189744 0.523864765,1.89702564 C0.534377101,1.93189744 0.54839355,1.96676923 0.558905886,2.00164103 Z"></path>
                            <path d="M0.176957663,0.20225641 C0.176957663,0.184820513 0.173453551,0.163897436 0.173453551,0.146461538 C0.173453551,0.163897436 0.176957663,0.181333333 0.176957663,0.20225641 Z"></path>
                            <path d="M0.226015233,0.655589744 C0.222511121,0.641641026 0.222511121,0.624205128 0.219007009,0.61025641 C0.222511121,0.624205128 0.222511121,0.638153846 0.226015233,0.655589744 Z"></path>
                            <path d="M0.429253737,1.60410256 C0.418741401,1.56923077 0.408229064,1.53087179 0.397716728,1.49251282 C0.408229064,1.53087179 0.418741401,1.56574359 0.429253737,1.60410256 Z"></path>
                            <path d="M9.97795932,5.77128205 C9.96744698,5.77825641 9.95343053,5.78174359 9.9429182,5.78871795 C9.95343053,5.78174359 9.96744698,5.77825641 9.97795932,5.77128205 Z"></path>
                        </g>
                        <path d="M32.2010385,0 C35.9574467,0 39.0025202,3.03035897 39.0025202,6.76861538 C39.0025202,8.41805128 38.4103252,9.928 37.4256697,11.1031795 C37.3756763,11.1714106 37.3248095,11.2392071 37.272921,11.3064214 C38.3480506,10.1127232 39.0027771,8.53583678 39.0060243,6.80697436 L39.0060243,26.2235897 C39.0060243,31.3648019 33.4966808,34.6085392 28.9883666,32.2106895 L28.7810251,32.096 C28.7810251,32.096 25.3517327,30.1084528 21.4804789,27.8622003 L20.9501218,27.554452 L20.4159691,27.2444707 C20.2374726,27.1408798 20.0586242,27.037079 19.8797042,26.9332308 L19.1917892,26.5339229 L18.8736505,26.3492342 C14.5583718,29.8226087 11.1134287,32.5913973 10.9450943,32.7132308 C9.82377839,33.5222564 8.44666231,34 6.95741465,34 C5.62935615,34 4.39240457,33.6198974 3.34467504,32.9643077 C2.90666102,32.7062564 2.49317579,32.3958974 2.11823579,32.0227692 C1.6031313,31.513641 1.20015841,30.9312821 0.898804764,30.3070769 C0.425749625,29.3864615 0.15593299,28.3403077 0.15593299,27.2348718 L0.15593299,7.80430769 C0.15593299,2.584 5.83609877,-0.68 10.3809322,1.93189744 C10.3809322,1.93189744 14.3255447,4.22754574 18.6357842,6.73003862 L19.187738,7.05046849 C19.2799694,7.1040071 19.3722974,7.1575991 19.4646875,7.21122438 L20.1582388,7.61372365 L20.2404257,7.66141309 C24.6223407,4.10768335 28.1564392,1.25432794 28.3990768,1.09846154 C29.4923598,0.397538462 30.8064019,0 32.2010385,0 Z M137.019545,9.58276923 C137.443543,9.58276923 137.786946,9.92451282 137.786946,10.3464615 L137.787234,11.2177567 L137.787234,11.2177567 L137.787947,12.2683524 L137.788239,12.6398332 L137.788239,12.6398332 L137.789157,13.7624353 L137.789448,14.1260971 L137.789448,14.1260971 L137.790161,15.1297787 L137.79045,15.9189744 C139.321747,14.9076923 140.726896,14.4125128 142.335283,14.5241026 C145.008921,14.7158974 147.195487,16.3444103 148.071515,18.9005128 C148.97908,21.5472821 148.162622,24.5218462 146.060154,26.2340513 C144.006745,27.9113846 141.199951,28.1694359 138.852196,26.9140513 C138.554346,26.753641 137.61174,26.2061538 137.61174,26.2061538 L137.61174,26.8722051 C137.61174,27.2941538 137.268337,27.6358974 136.844339,27.6358974 L135.93327,27.6358974 C135.509273,27.6358974 135.16587,27.2941538 135.16587,26.8722051 L135.137837,10.3499487 C135.137837,9.928 135.48124,9.58276923 135.905237,9.58276923 L137.019545,9.58276923 Z M123.129244,14.649641 C123.553242,14.649641 123.896645,14.9913846 123.896645,15.4133333 L123.897094,17.684352 L123.897357,18.1270523 L123.897357,18.1270523 L123.898159,19.0165383 C123.899168,19.8974277 123.90085,20.7298872 123.903653,21.3101538 C123.914166,23.5977436 125.350852,25.3099487 127.229056,25.296 C129.128284,25.2855385 130.522921,23.6082051 130.540442,21.2822564 C130.544647,20.7173333 130.546609,19.8929641 130.547226,19.0160361 L130.547254,17.6870859 C130.547127,17.4676447 130.546945,17.2513838 130.546721,17.0415358 L130.545936,16.4344632 C130.545347,16.0468841 130.544647,15.6978872 130.543946,15.4133333 C130.543946,14.9913846 130.887349,14.649641 131.311346,14.649641 L132.369588,14.649641 C132.793586,14.649641 133.136989,14.9913846 133.136989,15.4133333 L133.137338,15.5967715 L133.138092,16.2296078 L133.138092,19.3097837 L133.138092,19.3097837 L133.137264,20.8120753 L133.136989,21.4077949 C133.133485,22.0633846 133.091435,22.7433846 132.905717,23.4129231 C132.215407,25.9236923 129.986792,27.646359 127.334179,27.6847179 C124.60798,27.7265641 122.193647,26.0562051 121.569915,23.4931282 C121.37018,22.6631795 121.23352,21.5124103 121.230016,20.3128205 L121.230016,15.4098462 C121.230016,14.9878974 121.573419,14.649641 121.997416,14.649641 L123.129244,14.649641 Z M59.0250169,9.64205128 C59.3473953,9.64205128 59.6452448,9.80246154 59.8239545,10.0709744 L65.9561508,19.3712821 L65.9561508,10.5905641 C65.9561508,10.0674872 66.3836524,9.64205128 66.9092693,9.64205128 L69.9648551,9.64205128 C70.4904719,9.64205128 70.9179736,10.0674872 70.9179736,10.5905641 L70.9179736,26.694359 C70.9179736,27.2174359 70.4904719,27.6428718 69.9648551,27.6428718 L66.4607429,27.6428718 C66.1453728,27.6428718 65.8510274,27.4859487 65.6723177,27.2278974 L59.5751626,18.3321026 L59.5751626,26.6908718 C59.5751626,27.2139487 59.1476609,27.6393846 58.6220441,27.6393846 L55.5804747,27.6393846 C55.0548579,27.6393846 54.6272713,27.2139487 54.6272713,26.6908718 L54.6272713,10.5870769 C54.620348,10.0674872 55.0478497,9.64205128 55.5769706,9.64205128 L59.0250169,9.64205128 Z M109.424662,9.5897174 C109.852164,9.58625641 110.199071,9.93148718 110.199071,10.3534359 L110.199071,15.7969231 C110.199071,15.7969231 110.75272,15.3993846 111.082107,15.2145641 C114.610748,13.1466667 119.505992,15.5528205 119.449927,20.6406154 C119.449526,20.6814652 119.449183,20.7325744 119.448892,20.7929482 L119.448174,21.0008684 C119.448079,21.0398224 119.447996,21.0808438 119.447924,21.1238083 L119.448005,22.3659368 L119.448292,22.614612 L119.448292,22.614612 L119.449041,23.1345497 C119.451169,24.4647525 119.455058,25.9862125 119.456935,26.8791795 C119.449927,27.297641 119.106524,27.6428718 118.679022,27.6428718 L117.585739,27.6428718 C117.161741,27.6428718 116.818338,27.3011282 116.818338,26.8791795 C116.820006,26.1920375 116.821674,25.1304433 116.822964,24.0606226 L116.823764,23.3502091 C116.824009,23.1156776 116.824232,22.8847588 116.824427,22.6614717 L116.825,21.9084282 L116.825347,20.9858462 C116.821843,18.5657436 115.41319,16.8918974 113.464903,16.9267692 C111.541146,16.9581538 110.202575,18.5901538 110.192062,20.9579487 C110.190748,21.2234103 110.189804,21.547105 110.18916,21.9073103 L110.188251,22.6699657 L110.188344,24.3328906 L110.188344,24.3328906 L110.189098,25.1559245 L110.189833,25.7110928 C110.190498,26.1576831 110.19128,26.5592619 110.192062,26.8791795 C110.192062,27.3011282 109.848659,27.6428718 109.424662,27.6428718 L108.313858,27.6428718 C107.889861,27.6428718 107.546458,27.3011282 107.546458,26.8791795 L107.546458,10.3604103 C107.546458,9.94194872 107.886357,9.60020513 108.310354,9.59671795 L109.424662,9.5897174 Z M104.143965,9.64205128 C104.669582,9.64205128 105.097083,10.0674872 105.097083,10.5905641 L105.097083,12.8781538 C105.097083,13.4012308 104.669582,13.8266667 104.143965,13.8266667 L99.7287836,13.8266667 L99.7287836,26.6908718 C99.7287836,27.2139487 99.3012819,27.6393846 98.7756651,27.6393846 L95.4187256,27.6393846 C94.8931088,27.6393846 94.4656071,27.2139487 94.4656071,26.6908718 L94.4656071,13.8266667 L90.0504258,13.8266667 C89.524809,13.8266667 89.097286,13.4012308 89.097286,12.8781538 L89.097286,10.5905641 C89.0938032,10.0674872 89.5213049,9.64205128 90.0504258,9.64205128 L104.143965,9.64205128 Z M86.5007602,9.64205128 C87.0263771,9.64205128 87.4538787,10.0674872 87.4538787,10.5905641 L87.4538787,12.3341538 C87.4538787,12.8572308 87.0263771,13.2826667 86.5007602,13.2826667 L80.68043,13.2826667 C80.1548132,13.2826667 79.7273115,13.7081026 79.7273115,14.2311795 L79.7273115,16.592 L85.3759402,16.592 C85.9015571,16.592 86.3290587,17.0174359 86.3290587,17.5405128 L86.3290587,19.0644103 C86.3290587,19.5874872 85.9015571,20.0129231 85.3759402,20.0129231 L79.7273115,20.0129231 L79.7273115,26.6873846 C79.7273115,27.2104615 79.2998098,27.6358974 78.774193,27.6358974 L75.3962289,27.6358974 C74.870612,27.6358974 74.443089,27.2104615 74.443089,26.6873846 L74.443089,10.5835897 C74.4396063,10.0674872 74.8671079,9.64205128 75.3927248,9.64205128 L86.5007602,9.64205128 Z M20.2401889,7.66127567 L20.1106049,7.766918 C18.9582532,8.70159664 17.7494017,9.68297928 16.5280269,10.6751291 L15.6103348,11.4206989 L14.8449785,12.0426607 C14.7473919,12.1219723 14.6498539,12.2012476 14.5523867,12.2804685 L13.9686123,12.7549935 C8.04584592,17.5697161 2.55274569,22.0459487 2.55274569,22.0459487 L2.47258913,22.1313846 L2.47258913,22.1313846 L2.39506065,22.2168205 L2.31352314,22.292537 C3.52899322,21.1618832 5.16178145,20.4697436 6.95741465,20.4697436 C8.34504306,20.4697436 9.63455633,20.8847179 10.7103188,21.5926154 C10.8756022,21.7022719 14.7523791,23.9566235 18.8726988,26.3496278 C19.8786204,25.5398732 20.9318041,24.6918367 22.001738,23.8301432 L22.8068524,23.181697 L23.5690944,22.5677279 L24.7656083,21.6038684 L25.3615648,21.1237525 C31.2085702,16.4131535 36.6092116,12.0586667 36.6092116,12.0586667 C36.8497921,11.8247525 37.0663679,11.5734648 37.2675874,11.3132491 C36.0225385,12.6933969 34.2156798,13.561641 32.2045426,13.561641 C31.2584323,13.561641 30.3578755,13.3698462 29.5414174,13.0211282 C29.4781646,12.994072 28.9545464,12.697552 28.1179392,12.2175816 L27.789828,12.0291615 C26.3069315,11.1768668 24.0461942,9.86853939 21.6400108,8.47326396 L21.0824437,8.14990186 L20.8022634,7.9873782 L20.8022634,7.9873782 L20.2401889,7.66127567 Z M141.802658,16.9232043 C139.647629,16.9093333 137.818483,18.7749744 137.786946,21.0172308 C137.755409,23.3048205 139.619596,25.3099487 141.778129,25.3064661 C143.894613,25.3029744 145.80085,23.3675897 145.839395,21.1881026 C145.881445,18.9249231 143.996232,16.9337436 141.802658,16.9232043 Z" id="形状结合"></path>
                    </g>
                    <g transform="translate(54.627188, 9.582769)">
                        <g></g>
                        <g id="编组" transform="translate(52.919269, 0.000000)"></g>
                    </g>
                </g>
            </g>
        </g>
    </g>
</svg>