<?xml version="1.0" encoding="UTF-8"?>
<svg width="197px" height="156px" viewBox="0 0 197 156" version="1.1" xmlns="http://www.w3.org/2000/svg" xmlns:xlink="http://www.w3.org/1999/xlink">
    <title>编组备份 3</title>
    <defs>
        <path d="M7,25 L190,25 C193.865993,25 197,28.1340068 197,32 L197,146 C197,155.388841 189.388841,163 180,163 L17,163 C7.61115925,163 1.14980138e-15,155.388841 0,146 L0,32 C1.30290921e-15,28.1340068 3.13400675,25 7,25 Z" id="path-1"></path>
        <filter x="-5.1%" y="-5.8%" width="110.2%" height="114.5%" filterUnits="objectBoundingBox" id="filter-2">
            <feOffset dx="0" dy="2" in="SourceAlpha" result="shadowOffsetOuter1"></feOffset>
            <feGaussianBlur stdDeviation="3" in="shadowOffsetOuter1" result="shadowBlurOuter1"></feGaussianBlur>
            <feComposite in="shadowBlurOuter1" in2="SourceAlpha" operator="out" result="shadowBlurOuter1"></feComposite>
            <feColorMatrix values="0 0 0 0 0   0 0 0 0 0   0 0 0 0 0  0 0 0 0.5 0" type="matrix" in="shadowBlurOuter1"></feColorMatrix>
        </filter>
        <path d="M7,34 L190,34 C193.865993,34 197,37.1340068 197,41 L197,146 C197,155.388841 189.388841,163 180,163 L17,163 C7.61115925,163 1.14980138e-15,155.388841 0,146 L0,41 C4.14730794e-16,37.1340068 3.13400675,34 7,34 Z" id="path-3"></path>
        <filter x="-5.1%" y="-6.2%" width="110.2%" height="115.5%" filterUnits="objectBoundingBox" id="filter-4">
            <feOffset dx="0" dy="2" in="SourceAlpha" result="shadowOffsetOuter1"></feOffset>
            <feGaussianBlur stdDeviation="3" in="shadowOffsetOuter1" result="shadowBlurOuter1"></feGaussianBlur>
            <feComposite in="shadowBlurOuter1" in2="SourceAlpha" operator="out" result="shadowBlurOuter1"></feComposite>
            <feColorMatrix values="0 0 0 0 0   0 0 0 0 0   0 0 0 0 0  0 0 0 0.5 0" type="matrix" in="shadowBlurOuter1"></feColorMatrix>
        </filter>
        <linearGradient x1="38.3964794%" y1="90.7905752%" x2="38.3964794%" y2="0%" id="linearGradient-5">
            <stop stop-color="#0A2BBB" offset="0%"></stop>
            <stop stop-color="#3257F6" offset="100%"></stop>
        </linearGradient>
    </defs>
    <g id="1.首页相关" stroke="none" stroke-width="1" fill="none" fill-rule="evenodd">
        <g id="Home-1920" transform="translate(-1334.000000, -4244.000000)">
            <g id="编组-51" transform="translate(1334.000000, 4244.000000)">
                <g id="编组-60">
                    <path d="M17,0 L58.9067159,0 L58.9067159,0 L79.5612996,15.2126122 C81.7950418,16.8578186 84.4965119,17.7453002 87.270734,17.7453002 L180,17.7453002 C189.388841,17.7453002 197,25.3564594 197,34.7453002 L197,146 C197,155.388841 189.388841,163 180,163 L17,163 C7.61115925,163 1.14980138e-15,155.388841 0,146 L0,17 C-1.14980138e-15,7.61115925 7.61115925,1.72470207e-15 17,0 Z" id="矩形" fill="#3257F6"></path>
                    <g id="矩形备份-25" fill-rule="nonzero">
                        <use fill="black" fill-opacity="1" filter="url(#filter-2)" xlink:href="#path-1"></use>
                        <use fill-opacity="0.64" fill="#FFFFFF" xlink:href="#path-1"></use>
                    </g>
                    <g id="矩形备份-24" fill-rule="nonzero">
                        <use fill="black" fill-opacity="1" filter="url(#filter-4)" xlink:href="#path-3"></use>
                        <use fill-opacity="0.64" fill="#FFFFFF" xlink:href="#path-3"></use>
                    </g>
                    <path d="M7,46 L190,46 C193.865993,46 197,49.1340068 197,53 L197,146 C197,155.388841 189.388841,163 180,163 L17,163 C7.61115925,163 9.48876711e-15,155.388841 0,146 L0,53 C4.14730794e-16,49.1340068 3.13400675,46 7,46 Z" id="矩形备份-10" fill="url(#linearGradient-5)"></path>
                </g>
                <g id="horizontal-blue备份" transform="translate(34.000000, 121.000000)" fill="#FFFFFF">
                    <path d="M24.6725862,5.55555556 L20.9596413,5.55555556 L20.9596413,13.7065401 L24.7586303,13.7065401 C25.5661144,13.7065401 26.2003316,13.5008726 26.6526102,13.1245374 C27.1577614,12.7144151 27.4379519,12.1206302 27.4379519,11.3003857 C27.4379519,10.3315651 26.8996291,9.57898121 26.0602364,9.30556638 L26.0602364,9.27169275 C26.7386543,8.99827792 27.1368818,8.48523527 27.1368818,7.67538679 C27.1368818,7.02563673 26.9107425,6.50219808 26.469493,6.11416734 C26.0602364,5.76130974 25.4690412,5.55555556 24.6725862,5.55555556 Z M25.3178326,7.96179662 C25.3178326,8.49701741 24.9417476,8.78212773 24.3923957,8.78212773 L22.8425079,8.78212773 L22.8425079,7.15194814 L24.4034249,7.15194814 C24.9626271,7.15194814 25.3178326,7.44884061 25.3178326,7.96179662 Z M25.5538223,11.1311042 C25.5538223,11.7118075 25.1667082,12.0880561 24.5423414,12.0880561 L22.8425079,12.0880561 L22.8425079,10.150588 L24.5214618,10.150588 C25.1015437,10.150588 25.5538223,10.4813541 25.5538223,11.1311042 Z M29.9120979,5.55555556 L28.1582132,5.55555556 L28.1582132,7.06080987 L29.9120979,7.06080987 L29.9120979,5.55555556 Z M29.9120979,7.86935885 L28.1582132,7.86935885 L28.1582132,13.7065401 L29.9120979,13.7065401 L29.9120979,7.86935885 Z M31.2148826,9.03215156 L31.2148826,12.1674988 C31.2148826,13.4214298 31.9461731,13.7742874 32.969946,13.7742874 C33.4431884,13.7742874 34.0380039,13.7287183 34.1892124,13.6831491 L34.1892124,12.3263844 C34.1633655,12.3263844 34.0796788,12.3282037 33.9785644,12.3304561 C33.8245775,12.3338348 33.6302627,12.3380799 33.5389987,12.3380799 C33.1629137,12.3380799 32.9257453,12.2235506 32.9257453,11.7677726 L32.9257453,9.03215156 L33.9261971,9.03215156 L33.9261971,7.86935885 L32.9257453,7.86935885 L32.9257453,6.02302907 L31.2148826,6.02302907 L31.2148826,7.86935885 L30.4835922,7.86935885 L30.4835922,9.03215156 L31.2148826,9.03215156 Z M33.6127508,7.26517792 L35.5890704,7.26517792 L35.5890704,13.7065401 L37.4940795,13.7065401 L37.4940795,7.26517792 L39.4913628,7.26517792 L39.4913628,5.55555556 L33.6127508,5.55555556 L33.6127508,7.26517792 Z M41.2624227,7.70926043 C39.4975088,7.70926043 38.3139398,9.04384706 38.3139398,10.7990386 C38.3139398,12.5555296 39.4975088,13.8889033 41.2624227,13.8889033 C43.037187,13.8889033 44.1998765,12.5555296 44.1998765,10.7990386 C44.1998765,9.04254756 43.0383656,7.70926043 41.2624227,7.70926043 Z M41.2513093,9.02036942 C42.0145927,9.02036942 42.4238493,9.73916626 42.4238493,10.7990386 C42.4238493,11.8602104 42.0158556,12.5659256 41.2513093,12.5659256 C40.4868473,12.5659256 40.0886198,11.8589109 40.0886198,10.7990386 C40.0886198,9.73916626 40.4868473,9.02036942 41.2513093,9.02036942 Z M46.4982299,7.86935885 L44.8192759,7.86935885 L44.8192759,13.7065401 L46.5731606,13.7065401 L46.5731606,11.0842355 C46.5731606,9.81860903 47.2786042,9.28737338 48.2065668,9.4201823 L48.2495888,9.4201823 L48.2495888,7.82378971 C48.1746581,7.78991607 48.0664715,7.77172307 47.9054967,7.77822057 C47.4064916,7.79779971 46.9173369,8.08550903 46.5301386,8.78082823 L46.4982299,8.78082823 L46.4982299,7.86935885 Z M50.4533106,7.86935885 L48.7744409,7.86935885 L48.7744409,13.7065401 L50.5282414,13.7065401 L50.5282414,11.0842355 C50.5282414,9.81860903 51.2337691,9.28737338 52.1617317,9.4201823 L52.2046696,9.4201823 L52.2046696,7.82378971 C52.1297388,7.78991607 52.0215523,7.77172307 51.8605775,7.77822057 C51.3615723,7.79779971 50.8724177,8.08550903 50.4852193,8.78082823 L50.4533106,8.78082823 L50.4533106,7.86935885 Z M55.0905137,7.6987778 C53.411644,7.6987778 52.2599836,9.03215156 52.2599836,10.7769471 C52.2599836,12.5438341 53.3784724,13.8771212 55.1974374,13.8771212 C55.8968191,13.8771212 56.4572843,13.6831491 56.9193292,13.3406875 C57.4036007,12.9878299 57.7268975,12.4865694 57.8448502,11.9618313 L56.1339876,11.9618313 C55.9840419,12.3276839 55.6817089,12.5438341 55.2195799,12.5438341 C54.4981399,12.5438341 54.0900619,12.0529696 53.9819596,11.2665121 L57.9419235,11.2665121 C57.9530368,10.0816279 57.6297401,9.06602519 56.9734646,8.42797063 C56.5002221,7.97227926 55.8759395,7.6987778 55.0905137,7.6987778 Z M55.1225066,9.02175556 C55.6927381,9.02175556 56.1020789,9.46575143 56.1659805,10.1610706 L53.9929887,10.1610706 C54.1109415,9.46575143 54.4551178,9.02175556 55.1225066,9.02175556 Z M60.2353938,7.86935885 L58.5454107,7.86935885 L58.5454107,13.7065401 L60.2992954,13.7065401 L60.2992954,10.4800546 C60.2992954,9.76125776 60.6864095,9.24830175 61.2677543,9.24830175 C61.8380699,9.24830175 62.1281108,9.67011949 62.1281108,10.2859959 L62.1281108,13.7065401 L63.8819955,13.7065401 L63.8819955,9.91104681 C63.8819955,8.61024718 63.1728475,7.6987778 61.967136,7.6987778 C61.2038527,7.6987778 60.6765591,8.0399399 60.2673025,8.66751182 L60.2353938,8.66751182 L60.2353938,7.86935885 Z M64.9561994,9.03215156 L64.9561994,12.1674988 C64.9561994,13.4214298 65.6874898,13.7742874 66.7112628,13.7742874 C67.184421,13.7742874 67.7793206,13.7287183 67.9305292,13.6831491 L67.9305292,12.3263844 C67.9046823,12.3263844 67.8209956,12.3282037 67.7198812,12.3304561 C67.5658943,12.3338348 67.3715795,12.3380799 67.2803155,12.3380799 C66.9042305,12.3380799 66.6669779,12.2235506 66.6669779,11.7677726 L66.6669779,9.03215156 L67.6675139,9.03215156 L67.6675139,7.86935885 L66.6669779,7.86935885 L66.6669779,6.02302907 L64.9561994,6.02302907 L64.9561994,7.86935885 L64.2249089,7.86935885 L64.2249089,9.03215156 L64.9561994,9.03215156 Z M92.1234794,13.8111066 C93.8047908,13.8111066 94.9944217,12.9777805 94.9944217,11.4888999 C94.9944217,9.70000799 93.6077818,9.32219999 92.0906446,9.01109966 C90.9220617,8.77779607 90.0489922,8.51113864 90.0489922,7.61110485 C90.0489922,6.78895444 90.7477845,6.3333497 91.8069181,6.3333497 C92.9527692,6.3333497 93.6734515,6.90001839 93.8157357,8.03335576 L94.7435299,8.03335576 C94.546521,6.56673992 93.7391211,5.55555556 91.7850282,5.55555556 C90.2013794,5.55555556 89.1313009,6.34443877 89.1313009,7.65554776 C89.1313009,9.15560407 90.3108288,9.55559021 91.6865237,9.86669054 C93.0841085,10.1777909 94.0228477,10.4333592 94.0228477,11.5222537 C94.0228477,12.5110867 93.2474407,13.0111343 92.1664173,13.0111343 C90.6930598,13.0111343 89.884818,12.3111369 89.7543207,10.9666741 L88.7928497,10.9666741 C88.8804092,12.5666186 89.9285978,13.8111066 92.1234794,13.8111066 Z M72.1524139,13.6555131 L71.1698108,13.6555131 L71.1698108,5.71114904 L76.4649733,5.71114904 L76.4649733,6.58891806 L72.1524139,6.58891806 L72.1524139,9.06671826 L75.7443752,9.06671826 L75.7443752,9.91113344 L72.1524139,9.91113344 L72.1524139,13.6555131 Z M78.2351912,13.6555131 L77.3503348,13.6555131 L77.3503348,7.91111612 L78.2351912,7.91111612 L78.2351912,13.6555131 Z M78.2351912,6.82222164 L77.3503348,6.82222164 L77.3503348,5.71114904 L78.2351912,5.71114904 L78.2351912,6.82222164 Z M79.4728114,13.6555131 L80.3576678,13.6555131 L80.3576678,5.71114904 L79.4728114,5.71114904 L79.4728114,13.6555131 Z M86.4304263,11.8777969 C86.1685896,13.1111092 85.2845751,13.8111066 84.0073847,13.8111066 C82.2822936,13.8111066 81.2778848,12.4555547 81.2778848,10.7889025 C81.2778848,9.12225023 82.3471213,7.76669834 83.95266,7.76669834 C85.6449163,7.76669834 86.5508206,9.09998546 86.5508206,11.0000279 L82.1837891,11.0000279 C82.2494588,12.1666325 82.8716366,13.0555772 84.0073847,13.0555772 C84.8257295,13.0555772 85.3721347,12.6555044 85.5683017,11.8777969 L86.4304263,11.8777969 Z M85.6011365,10.3222086 C85.5464118,9.17778221 84.9680138,8.4777848 83.95266,8.4777848 C82.9044714,8.4777848 82.3361764,9.27775708 82.205679,10.3222086 L85.6011365,10.3222086 Z M98.2913747,14.1222069 C97.8325291,15.3110763 97.3964153,15.5555556 96.7085678,15.5555556 C96.3701166,15.5555556 96.1512177,15.5332908 95.911271,15.4333159 L95.911271,14.6333436 L95.9550507,14.6333436 C96.0754451,14.6999647 96.2606671,14.7554966 96.5553386,14.7554966 C96.9266247,14.7554966 97.1775164,14.6110789 97.3964153,14.0554992 L97.6144722,13.4888306 L95.4094875,7.91111612 L96.3701166,7.91111612 L97.7020317,11.4888999 C97.8763088,11.9666827 98.0842627,12.6110615 98.0842627,12.6110615 L98.1061526,12.6110615 C98.1061526,12.6110615 98.3023196,11.9666827 98.4774387,11.4888999 L99.765574,7.91111612 L100.704313,7.91111612 L98.2913747,14.1222069 Z M103.416133,13.8221957 C104.715213,13.8221957 105.643007,13.2333488 105.643007,12.0777467 C105.643007,10.7555486 104.693323,10.4999803 103.557575,10.2666767 C102.586001,10.0666403 102.040438,9.94448728 102.040438,9.32219999 C102.040438,8.86668188 102.367944,8.50004957 103.176186,8.50004957 C104.016421,8.50004957 104.420542,8.83332804 104.508101,9.58885741 L105.414006,9.58885741 C105.282666,8.46669574 104.594819,7.78887647 103.198076,7.78887647 C101.887209,7.78887647 101.167368,8.41116376 101.167368,9.36664289 C101.167368,10.6222199 102.160832,10.8555235 103.273849,11.0889137 C104.311092,11.3111282 104.748048,11.4778108 104.748048,12.1221896 C104.748048,12.6555044 104.365817,13.0666663 103.438023,13.0666663 C102.596946,13.0666663 101.941933,12.7888332 101.822381,11.7889111 L100.915635,11.7889111 C101.003194,13.0777553 101.865319,13.8221957 103.416133,13.8221957 Z M106.841899,8.64446735 L106.022713,8.64446735 L106.022713,7.91111612 L106.841899,7.91111612 L106.841899,6.10004611 L107.725914,6.10004611 L107.725914,7.91111612 L108.817882,7.91111612 L108.817882,8.64446735 L107.725914,8.64446735 L107.725914,12.3777579 C107.725914,12.7777441 107.933868,12.9110728 108.294209,12.9110728 C108.468486,12.9110728 108.664653,12.8666299 108.763157,12.8332761 L108.795992,12.8332761 L108.795992,13.6110702 C108.58888,13.6555131 108.348092,13.6888669 108.086255,13.6888669 C107.365573,13.6888669 106.841899,13.3888557 106.841899,12.5777943 L106.841899,8.64446735 Z M112.09042,13.8111066 C113.36761,13.8111066 114.252466,13.1111092 114.514303,11.8777969 L113.652178,11.8777969 C113.45517,12.6555044 112.909606,13.0555772 112.09042,13.0555772 C110.955513,13.0555772 110.332494,12.1666325 110.267666,11.0000279 L114.634697,11.0000279 C114.634697,9.09998546 113.727951,7.76669834 112.035695,7.76669834 C110.430998,7.76669834 109.36092,9.12225023 109.36092,10.7889025 C109.36092,12.4555547 110.365328,13.8111066 112.09042,13.8111066 Z M112.035695,8.4777848 C113.051049,8.4777848 113.630289,9.17778221 113.685013,10.3222086 L110.289556,10.3222086 C110.420053,9.27775708 110.987506,8.4777848 112.035695,8.4777848 Z M116.383362,13.6555131 L115.499348,13.6555131 L115.499348,7.91111612 L116.383362,7.91111612 L116.383362,8.73335316 L116.405252,8.73335316 C116.754648,8.17777354 117.354936,7.7777874 118.064674,7.7777874 C118.752521,7.7777874 119.298926,8.13333064 119.538873,8.7999742 L119.560763,8.7999742 C119.921104,8.14450634 120.598006,7.7777874 121.285854,7.7777874 C122.290263,7.7777874 123,8.4333419 123,9.62221125 L123,13.6555131 L122.115144,13.6555131 L122.115144,9.66665415 C122.115144,8.95556768 121.646195,8.53331678 121.0779,8.53331678 C120.347115,8.53331678 119.69126,9.17778221 119.69126,10.077816 L119.69126,13.6555131 L118.807246,13.6555131 L118.807246,9.66665415 C118.807246,8.95556768 118.41407,8.53331678 117.835672,8.53331678 C117.147824,8.53331678 116.383362,9.17778221 116.383362,10.077816 L116.383362,13.6555131 Z" id="形状"></path>
                    <path d="M9.37202276,15.0653015 L9.37202276,10.4874413 L13.2353807,8.19846819 L15.4533899,6.884296 L15.4533899,9.85235544 C15.4533899,9.91732497 15.5219076,9.9579739 15.5767385,9.92548914 L15.7676813,9.81230808 L16.8930176,9.14559686 C17.0203128,9.07022876 17.0986547,8.93083645 17.0986547,8.7800143 L17.0986547,5.90949511 L17.0986547,5.42213764 C17.0986547,5.12049336 16.9418868,4.84179466 16.6873805,4.69097252 L16.2760223,4.44725082 L13.8559866,3.01345217 C13.7286915,2.93808407 13.5719236,2.93808407 13.4446284,3.01345217 L12.1283494,3.79334445 C12.0735184,3.82582922 12.0735184,3.90704114 12.1283494,3.93952591 L14.6306735,5.42213764 L12.4126643,6.73622389 L8.54930636,9.02519697 L4.68603237,6.73622389 L2.54863231,5.46991947 L2.46802323,5.42213764 L4.97404189,3.93729151 C5.02887285,3.90480674 5.02887285,3.82368075 4.97412585,3.79111004 L3.65952615,3.0106162 C3.53214702,2.93499029 3.37521122,2.93499029 3.24783208,3.01044433 L0.822666013,4.44725082 L0.411333007,4.69097252 C0.156801449,4.84179466 0,5.12049336 0,5.42213764 L0,5.90949511 L0,8.77640489 C0,8.92722703 0.0784007243,9.06661934 0.205670702,9.14198744 L1.33706948,9.81230808 L1.52192457,9.92187972 C1.57677233,9.95436449 1.64532363,9.91371556 1.64532363,9.84874602 L1.64532363,6.884296 L1.72600828,6.93216377 L3.86331598,8.19846819 L7.72667394,10.4874413 L7.72667394,15.0653015 L7.72667394,17.6935599 L5.22073925,16.2087997 C5.16590828,16.176315 5.0973066,16.2169639 5.0973066,16.2819334 L5.0973066,16.7087042 L5.0973066,17.841632 C5.0973066,17.9924542 5.17573251,18.1318465 5.30302768,18.2072146 L7.72667394,19.6431617 L8.13803213,19.8868834 C8.3925385,20.0377055 8.70615819,20.0377055 8.96066456,19.8868834 L9.37202276,19.6431617 L11.795669,18.2072146 C11.9229642,18.1318465 12.0013061,17.9924542 12.0013061,17.841632 L12.0013061,16.7087042 L12.0013061,16.2819334 C12.0013061,16.2169639 11.9327884,16.176315 11.8779574,16.2087997 L9.37202276,17.6935599 L9.37202276,15.0653015 Z M13.8522921,15.0390902 C13.7250809,15.1144583 13.6466549,15.2538506 13.6466549,15.4045868 L13.6466549,16.7087042 L13.6466549,16.9642854 C13.6466549,17.0293409 13.7152566,17.0699039 13.7700876,17.0374191 L16.6873805,15.3090232 C16.9418868,15.158201 17.0986547,14.8795023 17.0986547,14.5778581 L17.0986547,11.1196052 C17.0986547,11.0546356 17.030137,11.0139867 16.975306,11.0464715 L16.5903977,11.2745524 L15.659027,11.8263638 C15.5317318,11.9017319 15.4533899,12.0411242 15.4533899,12.1919463 L15.4533899,14.0905006 L13.8522921,15.0390902 Z M3.45204175,16.9642854 C3.45204175,17.0293409 3.38344006,17.0699039 3.3286091,17.0374191 L0.411333007,15.3090232 C0.156801449,15.158201 0,14.8795023 0,14.5778581 L0,11.1159958 C0,11.0510262 0.0685596995,11.0103773 0.123399062,11.0428621 L0.514411864,11.2745524 L1.43966133,11.8227543 C1.56692291,11.8981224 1.64532363,12.0375148 1.64532363,12.1883369 L1.64532363,14.0905006 L3.24632066,15.0390902 C3.37361583,15.1144583 3.45204175,15.2537647 3.45204175,15.4045868 L3.45204175,16.7087042 L3.45204175,16.9642854 Z M5.2224186,1.84051998 C5.16758764,1.87304772 5.16758764,1.95425964 5.2224186,1.98674441 L6.09014173,2.50082877 L6.53869766,2.76663668 C6.66599283,2.84200478 6.82276069,2.84200478 6.95005586,2.76663668 L8.54930636,1.81903534 L10.1540148,2.76973047 C10.281226,2.84518451 10.4380778,2.84518451 10.565289,2.76973047 L11.0192189,2.50082877 L11.8815681,1.98992414 C11.936399,1.95743937 11.936399,1.87614151 11.8815681,1.84367392 L8.96066456,0.113103716 C8.70615819,-0.0377012385 8.3925385,-0.0377012385 8.13803213,0.113103716 L5.2224186,1.84051998 Z" id="形状"></path>
                </g>
                <g id="编组" transform="translate(83.000000, 69.000000)" stroke="#FFFFFF" stroke-linecap="round" stroke-linejoin="round" stroke-width="4.2">
                    <polyline id="路径" points="32 16.0771863 16 0 0 16.1129032"></polyline>
                    <line x1="16" y1="0" x2="16" y2="37" id="路径"></line>
                </g>
            </g>
        </g>
    </g>
</svg>