<?xml version="1.0" encoding="UTF-8"?>
<svg width="44px" height="44px" viewBox="0 0 44 44" version="1.1" xmlns="http://www.w3.org/2000/svg" xmlns:xlink="http://www.w3.org/1999/xlink">
    <title>search</title>
    <g id="移动端" stroke="none" stroke-width="1" fill="none" fill-rule="evenodd">
        <g id="search" transform="translate(1.000000, 1.000000)" fill-rule="nonzero">
            <circle id="椭圆形备份-2" stroke="#E4E7EB" fill="#FFFFFF" cx="21" cy="21" r="21"></circle>
            <path d="M19.1470588,11.1176471 C23.5815805,11.1176471 27.1764706,14.7125372 27.1764706,19.1470588 C27.1764706,20.8774115 26.6291254,22.4799249 25.6981263,23.7909076 L29.536882,27.6318224 C29.9926348,28.1503596 29.941738,28.9401776 29.4232009,29.3959303 C28.9392329,29.8212996 28.2189492,29.8053208 27.7545184,29.3797099 L27.659093,29.2822492 L23.9558303,25.5778334 C22.6153817,26.5818003 20.9506666,27.1764706 19.1470588,27.1764706 C14.7125372,27.1764706 11.1176471,23.5815805 11.1176471,19.1470588 C11.1176471,14.7125372 14.7125372,11.1176471 19.1470588,11.1176471 Z M19.1470588,13.6176471 C16.093249,13.6176471 13.6176471,16.093249 13.6176471,19.1470588 C13.6176471,22.2008686 16.093249,24.6764706 19.1470588,24.6764706 C22.2008686,24.6764706 24.6764706,22.2008686 24.6764706,19.1470588 C24.6764706,16.093249 22.2008686,13.6176471 19.1470588,13.6176471 Z" id="形状结合" fill="#04111D"></path>
        </g>
    </g>
</svg>