<?xml version="1.0" encoding="UTF-8"?>
<svg width="20px" height="20px" viewBox="0 0 20 20" version="1.1" xmlns="http://www.w3.org/2000/svg" xmlns:xlink="http://www.w3.org/1999/xlink">
    <title>编组 2</title>
    <g id="3.钱包&amp;我的" stroke="none" stroke-width="1" fill="none" fill-rule="evenodd">
        <g id="画板" transform="translate(-69.000000, -411.000000)" fill-rule="nonzero">
            <g id="编组-2" transform="translate(69.000000, 411.000000)">
                <path d="M10,0.2 C15.4123905,0.2 19.8,4.58760945 19.8,10 C19.8,15.4123905 15.4123905,19.8 10,19.8 C4.58760945,19.8 0.2,15.4123905 0.2,10 C0.2,4.58760945 4.58760945,0.2 10,0.2 Z M4,4 L9.56882052,17.3333333 L17.3333333,8.34188034 L14.5501539,5.84615384 L4,4 Z M5.62625642,5.8385565 L10.2244103,9.47844255 L9.576,15.383 L5.62625642,5.8385565 Z M15.8916923,8.95042735 L10.3524103,15.3306743 L11.0038974,9.71775878 L15.8916923,8.95042735 Z M14.3835898,6.76011397 L15.9753846,8.15346628 L11.7374359,8.83798671 L14.3835898,6.76011397 Z M6.20553846,5.16163343 L13.5163077,6.39620133 L10.6609231,8.69895536 L6.20553846,5.16163343 Z" id="形状结合" fill="#000000"></path>
                <g id="编组-39备份" fill="#FFFFFF">
                    <path d="M10,0 C15.5228475,0 20,4.4771525 20,10 C20,15.5228475 15.5228475,20 10,20 C4.4771525,20 0,15.5228475 0,10 C0,4.4771525 4.4771525,0 10,0 Z M10,0.2 C4.58760945,0.2 0.2,4.58760945 0.2,10 C0.2,15.4123905 4.58760945,19.8 10,19.8 C15.4123905,19.8 19.8,15.4123905 19.8,10 C19.8,4.58760945 15.4123905,0.2 10,0.2 Z" id="椭圆形"></path>
                    <g id="TRX-2备份" transform="translate(4.000000, 4.000000)">
                        <path d="M10.5501539,1.84615384 L0,0 L5.56882052,13.3333333 L13.3333333,4.34188034 L10.5501539,1.84615384 L10.5501539,1.84615384 Z M11.9753846,4.15346628 L7.7374359,4.83798671 L10.3835897,2.76011397 L11.9753846,4.15346628 Z M9.51630769,2.39620133 L6.66092308,4.69895536 L2.20553846,1.16163343 L9.51630769,2.39620133 L9.51630769,2.39620133 Z M5.57784615,11.3853751 L1.62625642,1.8385565 L6.22441025,5.47844255 L5.57620512,11.3853751 L5.57784615,11.3853751 Z M6.35241025,11.3306743 L7.00389744,5.71775878 L11.8916923,4.95042735 L6.35241025,11.3306743 Z" id="形状"></path>
                    </g>
                </g>
            </g>
        </g>
    </g>
</svg>