<?xml version="1.0" encoding="UTF-8"?>
<svg width="117px" height="38px" viewBox="0 0 117 38" version="1.1" xmlns="http://www.w3.org/2000/svg" xmlns:xlink="http://www.w3.org/1999/xlink">
    <title>编组 2</title>
    <g id="1.首页相关" stroke="none" stroke-width="1" fill="none" fill-rule="evenodd">
        <g id="画板" transform="translate(-21.000000, -518.000000)" fill-rule="nonzero">
            <g id="编组-2" transform="translate(22.000000, 519.000000)">
                <g id="编组">
                    <circle id="椭圆形" fill="#E9EDF1" cx="18" cy="18" r="17"></circle>
                    <circle id="椭圆形备份" stroke="#E9EDF1" stroke-width="0.8" cx="18" cy="18" r="18"></circle>
                    <g id="编组-7备份" transform="translate(10.000000, 7.000000)" fill="#111118">
                        <path d="M8,0 C10.1374314,0 12.146652,0.832041344 13.6570801,2.34418605 C15.1675082,3.85452196 16,5.86408269 16,8.00206718 L16,21 L0,21 L0,8.00206718 C0,5.86589147 0.832491767,3.85633075 2.34291987,2.34418605 C3.85334797,0.832041344 5.86256861,0 8,0 Z M8,0.397932817 C5.96443469,0.397932817 4.05005488,1.19018088 2.61163557,2.62997416 C1.17672887,4.06434109 0.386388584,5.97260982 0.386388584,8.00206718 L0.386388584,20.6020672 L15.6136114,20.6020672 L15.6136114,8.00206718 C15.6136114,5.9744186 14.8232711,4.06614987 13.3883644,2.62997416 C11.9499451,1.19018088 10.0355653,0.397932817 8,0.397932817 Z M8,1.39276486 C9.60526894,1.39276486 11.1227223,1.9751938 12.3257958,3.04056848 C12.4540066,3.15452196 12.5787047,3.27390181 12.6998902,3.39870801 C13.9556531,4.69198966 14.6458836,6.41033592 14.64764,8.23901809 L14.64764,19.6036176 L1.35411636,19.6036176 L1.35411636,8.2372093 C1.35411636,6.40852713 2.04434687,4.69018088 3.30010977,3.39689922 C4.55587267,2.10542636 6.22436883,1.39276486 8,1.39276486 Z M4.27310648,17.3589147 L4.27310648,18.8095607 L6.50362239,18.8095607 C5.67991218,18.4966408 4.92294182,18.0064599 4.27310648,17.3589147 Z M4.20812294,4.3501292 C3.24917673,5.47157623 2.72579583,6.89147287 2.72579583,8.39095607 L2.72579583,12.6687339 C2.72579583,13.9837209 3.12974753,15.2390181 3.87618002,16.2844961 C3.99912184,16.4581395 4.13260154,16.6263566 4.27486279,16.7873385 C4.33984632,16.8614987 4.40834248,16.9356589 4.47683864,17.0062016 C5.60614709,18.1692506 7.10076839,18.8095607 8.68671789,18.8095607 C9.36816685,18.8095607 10.0355653,18.6901809 10.6625686,18.4622739 L10.6625686,10.1183463 C10.6625686,6.23850129 6.73018661,4.47131783 4.20812294,4.3501292 Z M8.02458836,7.98397933 C9.00461032,7.98397933 9.80021954,8.80335917 9.80021954,9.8126615 C9.80021954,9.93927649 9.70010977,10.044186 9.57541164,10.044186 C9.45246981,10.044186 9.35060373,9.94108527 9.35060373,9.8126615 C9.35060373,9.05839793 8.75521405,8.44521964 8.02283205,8.44521964 C7.29045005,8.44521964 6.69506037,9.05839793 6.69506037,9.8126615 L6.69619875,13.3212138 C6.99394266,13.2244219 7.20965971,12.9371596 7.20965971,12.6 C7.20965971,12.473385 7.30976948,12.3684755 7.43446762,12.3684755 C7.55916575,12.3684755 7.65927552,12.4715762 7.65927552,12.6 C7.65598244,13.2291182 7.18959934,13.7485435 6.59441934,13.8110141 L6.47376509,13.8173127 C5.82217344,13.8173127 5.29176729,13.2710594 5.29176729,12.6 C5.29176729,12.473385 5.39187706,12.3684755 5.51657519,12.3684755 C5.64127333,12.3684755 5.7413831,12.4715762 5.7413831,12.6 C5.7413831,12.9358111 5.95466372,13.220214 6.24810524,13.318929 L6.24755921,9.91738881 C6.23936734,9.89369382 6.2349067,9.86818117 6.2349067,9.84160207 C6.2349067,9.80180879 6.22436883,8.87571059 5.61317234,8.87571059 C5.49198683,8.87571059 5.39363337,8.7744186 5.39363337,8.6496124 C5.39363337,8.5248062 5.49198683,8.42351421 5.61317234,8.42351421 C6.03435537,8.42351421 6.30037422,8.65706813 6.46090801,8.95172799 C6.75746143,8.37660739 7.34693904,7.98397933 8.02458836,7.98397933 Z M4.03600439,9.45090439 L5.01778266,10.4656331 L5.01778266,9.86330749 C5.01778266,9.73669251 5.11789243,9.63178295 5.24259056,9.63178295 C5.36728869,9.63178295 5.46739846,9.73488372 5.46739846,9.86330749 L5.46739846,11.022739 C5.46739846,11.1167959 5.4129528,11.2 5.32864984,11.2361757 C5.30054885,11.2488372 5.27244786,11.2542636 5.24259056,11.2542636 C5.18463227,11.2542636 5.12667398,11.2307494 5.0845225,11.1873385 L4.10274424,10.1726098 L4.10274424,11.022739 C4.10274424,11.149354 4.00263447,11.2542636 3.87793633,11.2542636 C3.7532382,11.2542636 3.65312843,11.1511628 3.65312843,11.022739 L3.65312843,9.61369509 C3.65312843,9.51963824 3.70757409,9.43643411 3.79187706,9.4002584 C3.87618002,9.36408269 3.97277717,9.38397933 4.03600439,9.45090439 Z M8.02283205,9.74754522 C8.50933041,9.74754522 8.90625686,10.1563307 8.90625686,10.6573643 C8.90976948,10.7857881 8.80965971,10.8888889 8.68496158,10.8888889 C8.56201976,10.8888889 8.46015368,10.7857881 8.46015368,10.6573643 C8.46015368,10.4095607 8.26520307,10.2087855 8.02458836,10.2087855 C7.78397366,10.2087855 7.58902305,10.4095607 7.58902305,10.6573643 C7.58902305,10.7839793 7.48891328,10.8888889 7.36421515,10.8888889 C7.23951701,10.8888889 7.13940724,10.7857881 7.13940724,10.6573643 C7.13940724,10.154522 7.5363337,9.74754522 8.02283205,9.74754522 Z" id="形状结合"></path>
                    </g>
                </g>
                <path d="M50.5849801,22.9998601 L51.0479602,21.7961401 L54.8600201,21.7961401 L55.3228601,22.9998601 L58.9218402,22.9998601 L55.73054,13.2 L50.1773,13.2 L46.986,22.9998601 L50.5849801,22.9998601 Z M53.9000402,19.3012 L52.0075201,19.3012 L52.9539202,15.33808 L53.9000402,19.3012 Z M63.4827801,22.9998601 L63.4827801,19.81738 L67.3774401,19.81738 C72.43508,19.81738 72.43508,13.2001399 67.3774401,13.2001399 L63.4827801,13.2001399 L63.4827801,13.2 L60.014,13.2 L60.014,22.9998601 L63.4827801,22.9998601 Z M66.85146,17.32188 L63.4827801,17.32188 L63.4827801,15.6949399 L66.85146,15.6949399 C68.008,15.6949399 68.008,17.32188 66.85146,17.32188 Z M81.4413,23 L81.4413,20.50492 L75.9226399,20.50492 L75.9226399,19.34754 L80.46312,19.34754 L80.46312,16.8523201 L75.9226399,16.8523201 L75.9226399,15.6952202 L81.4413,15.6952202 L81.4413,13.2000002 L72.454,13.2000002 L72.454,23 L81.4413,23 Z M86.4587801,23 L86.4587801,18.58188 L89.92742,21.3295199 L92.03638,23 L93.3962,23 L93.3962,13.2 L89.92742,13.2 L89.92742,17.61812 L86.4587801,14.87062 L84.3498201,13.2 L82.99,13.2 L82.99,23 L86.4587801,23 Z M98.6747801,23 L98.6747801,19.34754 L103.21526,19.34754 L103.21526,16.8523201 L98.6747801,16.8523201 L98.6747801,15.6952202 L104.19344,15.6952202 L104.19344,13.2000002 L95.206,13.2000002 L95.206,23 L98.6747801,23 Z M111.76466,23 L111.76466,15.6682 L115.2144,15.6682 L115.2144,13.2 L104.846,13.2 L104.846,15.6682 L108.29588,15.6682 L108.29588,23 L111.76466,23 Z" id="APENFT" fill="#111118"></path>
            </g>
        </g>
    </g>
</svg>