<?xml version="1.0" encoding="UTF-8"?>
<svg width="37px" height="31px" viewBox="0 0 37 31" version="1.1" xmlns="http://www.w3.org/2000/svg" xmlns:xlink="http://www.w3.org/1999/xlink">
    <title>形状结合 3</title>
    <g id="1.首页相关" stroke="none" stroke-width="1" fill="none" fill-rule="evenodd">
        <g id="Home-1920" transform="translate(-336.000000, -1635.000000)" fill="#FFC705">
            <g id="编组-23" transform="translate(320.000000, 1524.000000)">
                <g id="编组-23备份-4" transform="translate(16.000000, 96.000000)">
                    <g id="编组-23备份" transform="translate(0.000000, 15.000000)">
                        <path d="M8.55634536,0 C8.95934021,0.609193571 8.87799742,2.05444211 8.06065979,2.81164773 C8.39776031,2.53422201 8.74592268,2.27122939 9.10476546,2.02402602 C9.33229639,1.2225524 10.2290696,0.351044284 11.6571933,0.607159374 C11.4563634,1.33327084 10.262732,2.23761671 9.13814175,2.03419701 C8.78778608,2.28033485 8.44772938,2.54148699 8.11892526,2.81639419 C9.10171392,2.34068269 10.4300902,2.77241679 10.8426211,3.36281825 C9.59911598,4.08282713 8.48024742,3.59122952 7.98990206,2.92759696 C7.73748196,3.14331871 7.49002062,3.36504618 7.25219072,3.59694464 C7.14703952,3.69000108 7.05087342,3.79227061 6.95583753,3.89565948 L6.81314948,4.05057058 L6.77119072,4.09580724 C7.69399742,3.4700495 9.09952062,3.74418176 9.5834768,4.29186509 C8.47394117,5.11806915 7.35253969,4.81898305 6.76832556,4.25946231 L6.69204124,4.18163098 L6.38459794,4.51465809 L5.98932732,5.00809617 C5.88614691,5.13876911 5.77886598,5.26634232 5.68140722,5.40156799 C6.57398454,4.72795818 7.97798196,4.84526354 8.52745103,5.33327709 C7.44377062,6.3656805 6.19940722,6.15703001 5.53407474,5.61448061 C5.39014347,5.82261448 5.24294874,6.02859576 5.10636378,6.24158013 L4.91117784,6.56745347 L4.58704639,7.1148462 C5.41973711,6.24236942 6.93244588,6.14637469 7.56230412,6.57500906 C6.59497221,7.73134267 5.35568564,7.73978635 4.6073104,7.33032159 L4.50837371,7.2719637 L4.30477835,7.67822191 C4.10375773,8.04999563 3.95642526,8.44724524 3.79164175,8.83587374 C3.7713299,8.88091667 3.75273454,8.92644394 3.7348067,8.97245554 C4.47251804,7.95884423 5.96872938,7.58581124 6.67115722,7.89694652 C5.8248299,9.33502694 4.47785825,9.55045808 3.64612113,9.22130564 L3.61106411,9.32647846 L3.61106411,9.32647846 L3.57593557,9.43150599 L3.37539175,10.0327565 L3.29449001,10.3391574 L3.29449001,10.3391574 L3.21623454,10.6465028 L3.14194845,10.9375867 C3.81195361,9.78342208 5.33896649,9.21442811 6.08745361,9.45872549 C5.35846571,10.9717806 4.0791121,11.3793092 3.20437311,11.1954605 L3.08768814,11.1667729 L3.07014175,11.2629614 L2.95809278,11.8871692 L2.90240206,12.1991763 L2.86940722,12.5145737 L2.84585309,12.7393041 C3.46646134,11.6038347 4.8633067,10.9578318 5.56439948,11.1334508 C4.92266448,12.6213735 3.75829403,13.1232485 2.93186528,13.0381624 L2.81619588,13.0220574 L2.80332216,13.1451748 L2.78701546,13.3027766 L2.7820567,13.4612503 L2.77204381,13.7781007 L2.75220876,14.4116077 L2.76670361,14.9169604 C3.20612629,13.7077756 4.46784536,12.8487632 5.2082268,12.8985526 C4.83755928,14.5740529 3.67043814,15.2818566 2.78777835,15.2970646 C2.82411082,15.8595685 2.88781186,16.4199414 2.98393557,16.9747928 C3.26372423,15.6622514 4.43570876,14.5866455 5.20631959,14.5244572 C5.07290979,16.3141631 3.97235052,17.2262583 3.06146392,17.37892 C3.07300258,17.4370399 3.08253866,17.4955473 3.09484021,17.5535703 C3.21623454,18.1219831 3.37462887,18.6810967 3.56258505,19.2296518 C3.61579639,17.8432981 4.64178351,16.5406371 5.41754381,16.3499069 C5.56697423,18.1877554 4.58790464,19.2886435 3.68912887,19.5823428 C3.91217784,20.1832058 4.17346649,20.7686671 4.46984794,21.3354331 C4.32766495,19.9431706 5.14223711,18.4912383 5.88528866,18.1741941 C6.3291933,19.9948973 5.52892526,21.2650112 4.6739201,21.7170873 C4.76785052,21.8852475 4.86416495,22.0521486 4.96438918,22.2165311 C5.1963067,22.5955698 5.44662887,22.9624033 5.71182732,23.3179034 C5.34287629,21.8918345 5.96148196,20.2466534 6.68403093,19.7938993 C7.43709536,21.6143119 6.81028866,23.0695377 5.99390464,23.6834777 C6.39289433,24.184762 6.82325773,24.6598923 7.28165722,25.1049939 C6.73533505,23.7501219 7.11906701,22.0522454 7.76752062,21.5045621 C8.75746134,23.1869399 8.35189175,24.7071631 7.63840206,25.4381179 C7.83923196,25.6210019 8.0431134,25.8004956 8.25328866,25.9722399 C8.54862113,26.2146 8.85501546,26.4426238 9.16884794,26.6591205 C8.40786856,25.369827 8.50008247,23.6067594 9.05060052,22.950295 C10.3302474,24.4920226 10.2016057,26.0939043 9.6243866,26.9596973 C10.1750954,27.3092886 10.7483093,27.6215862 11.3393557,27.893878 C10.3847938,26.7386479 10.2058969,24.9744179 10.6521856,24.2376511 C12.147634,25.5601697 12.2638789,27.1606953 11.8261727,28.1066938 C12.073634,28.2101472 12.3229072,28.3095323 12.575232,28.3996182 C12.9402732,28.5304848 13.3110361,28.6433343 13.6851366,28.7417507 C12.5120077,27.7485782 12.01575,25.990354 12.3373067,25.1421907 C14.1215077,26.1852494 14.537567,27.809701 14.262451,28.880173 C15.1566631,29.0750408 16.0688108,29.1837962 16.9822596,29.2119293 L17.4390155,29.2193027 L17.4390155,29.6512305 C16.327299,29.6377661 15.2154871,29.508643 14.1323789,29.2565963 C13.7735409,30.0847131 12.8101953,30.9112562 11.3538629,30.9933352 L11.1198351,31 L11.1078196,31 C10.8436701,30.9996125 10.5647397,30.9751053 10.2714098,30.9227005 C10.5452861,30.1074718 11.8986469,29.1435531 13.3393582,29.0468803 C13.0405928,28.9589255 12.7436392,28.8642869 12.4511675,28.7558932 C12.1796753,28.6557332 11.9119021,28.5450148 11.6462268,28.4296468 C11.0776856,29.3074512 9.63926289,30.0407308 7.73223711,29.3757421 C8.11692268,28.6529241 9.57394072,27.9605222 10.9721211,28.1169616 C10.4327603,27.8508693 9.90932474,27.5529079 9.40572423,27.223368 C8.65380412,27.9482202 7.07481959,28.3251278 5.36690722,27.2100972 C5.89587371,26.6167898 7.4070567,26.2982926 8.7064433,26.7360325 C8.48415722,26.5710688 8.26501804,26.4020367 8.05255412,26.2240929 C7.82940979,26.0377217 7.61341753,25.8427294 7.40085825,25.6438624 C6.57379381,26.2464691 5.00739691,26.4021336 3.53473969,25.0960822 C4.13637113,24.5832708 5.66243041,24.4797205 6.85091237,25.1033472 C6.46279381,24.7024167 6.09546392,24.2811441 5.75311856,23.8396265 C4.85930155,24.3349051 3.28336856,24.2929619 1.98073969,22.8085792 C2.65637113,22.3656086 4.2408866,22.4708057 5.34840722,23.2918463 C5.13413144,22.9880729 4.92901031,22.6776157 4.73800258,22.3581499 C4.63177062,22.1794312 4.52925773,21.9983876 4.42998711,21.8154068 C3.44462371,22.0793681 1.92028093,21.6515086 1.00996649,19.8850507 C1.73766495,19.6339727 3.15272423,20.072778 4.0427268,21.046674 C3.82501804,20.5869455 3.63000515,20.1168523 3.45883247,19.6376536 C2.45039175,19.7925432 0.978115979,19.198267 0.265389175,17.3350394 C1.04315206,17.1618421 2.47041753,17.8093948 3.23101546,18.9510637 C3.09579381,18.505962 2.97935825,18.0550483 2.88685825,17.5987101 C2.87360309,17.5325503 2.86349485,17.4658092 2.85081186,17.3994557 C1.82701804,17.4181509 0.430363402,16.6070875 0,14.6293637 C0.824585052,14.5767652 2.21046392,15.5046496 2.75325773,16.827362 C2.67639691,16.3165848 2.62528351,15.8023204 2.59820103,15.286603 C1.58518299,15.1264827 0.34339433,14.0759652 0.265389175,12.0441899 C1.03581382,12.1354289 2.14201236,13.1660756 2.52512028,14.4498952 L2.57703093,14.6442811 L2.57273969,14.411414 L2.59953608,13.7705451 L2.6128866,13.4503043 L2.61965722,13.2900871 L2.63777577,13.1308386 L2.65446392,12.9858294 C1.76903866,12.7396915 0.756783505,11.6593392 0.848520619,9.7882654 C1.54647104,9.94740326 2.47994755,11.0569313 2.68424172,12.3200777 L2.70929639,12.5106022 L2.71129897,12.4939412 L2.74801289,12.1757346 L2.80751804,11.8610153 L2.92710052,11.2316735 L2.95113144,11.1089436 C2.15296134,10.6776938 1.41944588,9.4731586 1.90731186,7.80298599 C2.52010052,8.09038897 3.15606186,9.21384691 3.14919588,10.3551283 L3.19763918,10.1737336 L3.19763918,10.1737336 L3.24837113,9.9931381 L3.45702062,9.38859412 L3.53512113,9.16231392 C2.79454897,8.6565738 2.19949742,7.41193583 2.87617784,5.88551314 C3.45911856,6.24905321 3.96176546,7.45136051 3.78124742,8.55505768 C3.86974227,8.34601972 3.95743184,8.1366804 4.05499656,7.93209113 L4.21008505,7.62940118 L4.42493299,7.21151899 C3.74977835,6.66267327 3.27411856,5.42927181 4.05388402,4.06045096 C4.57516867,4.45374519 4.95712586,5.59640872 4.72297345,6.60068897 L4.67515979,6.7762977 L4.83202835,6.51766408 C5.02131959,6.18299024 5.25009021,5.87485782 5.47142268,5.56207582 C4.83784536,4.97099629 4.45087113,3.71492807 5.34630928,2.4723243 C5.88690979,2.96459997 6.17079897,4.35327846 5.63267784,5.33405202 L5.78088048,5.14634891 L5.78088048,5.14634891 L5.93258763,4.9614065 L6.33481959,4.46990576 L6.65179897,4.13377892 C6.13999742,3.48661367 5.94851289,2.26222081 6.94541495,1.21722474 C7.37186856,1.72916432 7.4735232,2.98145475 6.9309201,3.83775482 C7.02237113,3.74079143 7.11468041,3.64518417 7.21538144,3.5580043 C7.45702577,3.32726824 7.70801546,3.1071875 7.96386856,2.89311248 C7.51023711,2.1977077 7.43804897,0.938636619 8.55634536,0 Z M28.4436546,0 C29.561951,0.938636619 29.4898582,2.1977077 29.0361314,2.89311248 C29.2919845,3.1071875 29.5429742,3.32726824 29.7846186,3.5580043 C29.8853196,3.64518417 29.9776289,3.74079143 30.0690799,3.83775482 C29.5264768,2.98145475 29.6281314,1.72916432 30.0545851,1.21722474 C31.0061734,2.21472098 30.874868,3.37567588 30.4159133,4.04202231 L30.348201,4.13377892 L30.6650851,4.46990576 L31.0674124,4.9614065 C31.1676366,5.08539565 31.2717706,5.20638194 31.3673222,5.33405202 C30.829201,4.35327846 31.1131856,2.96459997 31.6536907,2.4723243 C32.5491289,3.71492807 32.1621546,4.97099629 31.5285773,5.56207582 C31.6761323,5.77059716 31.8269931,5.97705201 31.9672583,6.19068216 L32.1679716,6.51766408 L32.3247448,6.7762977 C31.9984201,5.7334327 32.3941675,4.47688015 32.946116,4.06045096 C33.6919786,5.36975786 33.2892102,6.55516497 32.6619125,7.13609338 L32.575067,7.21151899 L32.7899149,7.62940118 C32.9550799,7.92726574 33.0859149,8.24150074 33.2187526,8.55505768 C33.0382345,7.45136051 33.5408814,6.24905321 34.1238222,5.88551314 C34.7723076,7.34833489 34.2528308,8.55236476 33.5565271,9.09528105 L33.4647835,9.16231392 L33.5429794,9.38859412 L33.7516289,9.9931381 C33.7866263,10.1131557 33.8188582,10.2340451 33.8508041,10.3551283 C33.8439381,9.21384691 34.4798995,8.09038897 35.0926881,7.80298599 C35.5602264,9.40356807 34.9060445,10.5765075 34.1482194,11.0510321 L34.0488686,11.1089436 L34.0728995,11.2316735 L34.1925773,11.8610153 L34.2519871,12.1757346 L34.288701,12.4939412 L34.2907036,12.5106022 C34.426116,11.1702601 35.4186314,9.95536016 36.1514794,9.7882654 C36.2393941,11.5813778 35.3133993,12.6482894 34.4567858,12.9507204 L34.3455361,12.9858294 L34.3623196,13.1308386 L34.3803428,13.2900871 L34.387018,13.4503043 L34.4004639,13.7705451 L34.4272603,14.411414 L34.4229691,14.6442811 C34.7466237,13.2714887 35.9256649,12.1399909 36.7346108,12.0441899 C36.6566057,14.0759652 35.414817,15.1264827 34.401799,15.286603 C34.3747165,15.8023204 34.3236031,16.3165848 34.2467423,16.827362 C34.7894407,15.5046496 36.1754149,14.5767652 37,14.6293637 C36.5696366,16.6070875 35.172982,17.4181509 34.1491881,17.3994557 C34.1365052,17.4658092 34.1263969,17.5325503 34.1131418,17.5987101 C34.0205464,18.0550483 33.9042062,18.505962 33.7689845,18.9510637 C34.5295825,17.8093948 35.9568479,17.1618421 36.7346108,17.3350394 C36.021884,19.198267 34.5496082,19.7925432 33.5412629,19.6376536 C33.3699948,20.1168523 33.174982,20.5869455 32.9572732,21.046674 C33.8472758,20.072778 35.2623351,19.6339727 35.9901289,19.8850507 C35.0796237,21.6515086 33.5553763,22.0793681 32.5700129,21.8154068 C32.4707423,21.9983876 32.3682294,22.1794312 32.2619021,22.3581499 C32.0710851,22.6776157 31.8658686,22.9880729 31.6515928,23.2918463 C32.7591134,22.4708057 34.3437242,22.3656086 35.0192603,22.8085792 C33.7166314,24.2929619 32.1406985,24.3349051 31.2468814,23.8396265 C30.9045361,24.2811441 30.5372062,24.7024167 30.1489923,25.1033472 C31.3375696,24.4797205 32.8636289,24.5832708 33.4651649,25.0960822 C31.9926031,26.4021336 30.4262062,26.2464691 29.5992371,25.6438624 C29.3865825,25.8427294 29.1705902,26.0377217 28.9473505,26.2240929 C28.734982,26.4020367 28.5157474,26.5710688 28.2935567,26.7360325 C29.5929433,26.2982926 31.1041263,26.6167898 31.6331881,27.2100972 C29.9251804,28.3251278 28.3461959,27.9482202 27.5942758,27.223368 C27.0906753,27.5529079 26.5672397,27.8508693 26.0278789,28.1169616 C27.4260593,27.9605222 28.8830773,28.6529241 29.2677629,29.3757421 C27.3607371,30.0407308 25.9223144,29.3074512 25.3537732,28.4296468 C25.0880979,28.5450148 24.8203247,28.6557332 24.5488325,28.7558932 C24.2562655,28.8642869 23.9594072,28.9589255 23.6606418,29.0468803 C25.1013531,29.1435531 26.4547139,30.1074718 26.7285902,30.9227005 C26.5330369,30.957637 26.3438834,30.9801747 26.1612427,30.9914327 L25.8921804,31 L25.8801649,31 C24.292884,30.9982564 23.2454407,30.1282981 22.8676211,29.2565963 C21.9392426,29.4726363 20.9897758,29.5983651 20.0373563,29.6383577 L19.5609845,29.6512305 L19.5609845,29.2193027 C20.6266418,29.217656 21.6943015,29.1075187 22.7376443,28.880173 C22.462433,27.809701 22.8784923,26.1852494 24.6626933,25.1421907 C24.98425,25.990354 24.4879923,27.7485782 23.314768,28.7417507 C23.6889639,28.6433343 24.0596314,28.5304848 24.424768,28.3996182 C24.6770928,28.3095323 24.926366,28.2101472 25.1738273,28.1066938 C24.7360258,27.1606953 24.852366,25.5601697 26.3478144,24.2376511 C26.7940077,24.9744179 26.6152062,26.7386479 25.6606443,27.893878 C26.2516907,27.6215862 26.8249046,27.3092886 27.3756134,26.9596973 C26.798299,26.0939043 26.6698479,24.4920226 27.9494948,22.950295 C28.4999175,23.6067594 28.5921314,25.369827 27.8312474,26.6591205 C28.1448892,26.4426238 28.4512835,26.2146 28.7467113,25.9722399 C28.9567912,25.8004956 29.160768,25.6210019 29.3616933,25.4381179 C28.6481082,24.7071631 28.2425387,23.1869399 29.2324794,21.5045621 C29.880933,22.0522454 30.2646649,23.7501219 29.7183428,25.1049939 C30.1767423,24.6598923 30.6071057,24.184762 31.0060954,23.6834777 C30.1897113,23.0695377 29.5629046,21.6143119 30.3159691,19.7938993 C31.038518,20.2466534 31.6571237,21.8918345 31.2881727,23.3179034 C31.5533711,22.9624033 31.8035979,22.5955698 32.0356108,22.2165311 C32.1357397,22.0521486 32.2321495,21.8852475 32.3261753,21.7170873 C31.4711701,21.2650112 30.6707113,19.9948973 31.1147113,18.1741941 C31.8577629,18.4912383 32.6723351,19.9431706 32.5301521,21.3354331 C32.8265335,20.7686671 33.0878222,20.1832058 33.3108711,19.5823428 C32.4120954,19.2886435 31.4329304,18.1877554 31.5824562,16.3499069 C32.3582165,16.5406371 33.3842036,17.8432981 33.4374149,19.2296518 C33.6253711,18.6810967 33.7837655,18.1219831 33.9051598,17.5535703 C33.9174613,17.4955473 33.9269974,17.4370399 33.9386314,17.37892 C33.0276495,17.2262583 31.9270902,16.3141631 31.7936804,14.5244572 C32.5642912,14.5866455 33.7362758,15.6622514 34.0160644,16.9747928 C34.1121881,16.4199414 34.1758892,15.8595685 34.212317,15.2970646 C33.3295619,15.2818566 32.1624407,14.5740529 31.7918686,12.8985526 C32.4931922,12.8513837 33.6625056,13.6198707 34.1572763,14.7290279 L34.2332964,14.9169604 L34.2477912,14.4116077 L34.2279562,13.7781007 L34.2179433,13.4612503 L34.2129845,13.3027766 L34.1966778,13.1451748 L34.1838995,13.0220574 C33.3536881,13.1688102 32.1078943,12.6922269 31.4356005,11.1334508 C32.0997937,10.9670749 33.3885152,11.5381103 34.0499335,12.5641354 L34.1541469,12.7393041 L34.1305928,12.5145737 L34.0975979,12.1991763 L34.0419072,11.8871692 L33.9299536,11.2629614 L33.9123119,11.1667729 C33.0383299,11.4140731 31.6746701,11.0405558 30.9125464,9.45872549 C31.6216394,9.22728587 33.0293792,9.72578086 33.7453642,10.7602464 L33.8580515,10.9375867 L33.7836701,10.6465028 L33.7054981,10.3391574 L33.7054981,10.3391574 L33.6246082,10.0327565 L33.4240644,9.43150599 C33.4004149,9.36156836 33.377433,9.291437 33.3538789,9.22130564 C32.5221418,9.55045808 31.1751701,9.33502694 30.3288428,7.89694652 C31.0311753,7.58581124 32.5275773,7.95884423 33.2651933,8.97245554 C33.2472655,8.92644394 33.2286701,8.88091667 33.2083582,8.83587374 C33.0847706,8.54440236 32.9709992,8.24808161 32.8370321,7.96129616 L32.6952216,7.67822191 L32.4916263,7.2719637 C31.7575387,7.73818228 30.4489974,7.78390328 29.4376959,6.57500906 C30.0343133,6.1689344 31.4234664,6.23371798 32.2746737,6.98103187 L32.4113325,7.11194021 L32.0888222,6.56745347 C31.9049665,6.2340389 31.6818222,5.92668142 31.4659253,5.61448061 C30.8005928,6.15703001 29.5562294,6.3656805 28.472549,5.33327709 C29.022018,4.84526354 30.4260155,4.72795818 31.3185928,5.40156799 L31.1667784,5.2031248 L31.1667784,5.2031248 L31.0106727,5.00809617 L30.6154021,4.51465809 L30.3079588,4.18163098 C29.7494304,4.78946842 28.5764923,5.15562388 27.4165232,4.29186509 C27.8762816,3.77156593 29.1677542,3.4981466 30.0868617,4.00861446 L30.2287139,4.09580724 L30.1868505,4.05057058 C30.0430464,3.8968434 29.9055361,3.7365293 29.7478093,3.59694464 C29.5099794,3.36504618 29.262518,3.14331871 29.0100979,2.92759696 C28.5198479,3.59122952 27.400884,4.08282713 26.1574742,3.36281825 C26.5699098,2.77241679 27.8982861,2.34068269 28.8811701,2.81639419 C28.5522706,2.54148699 28.2123093,2.28033485 27.8617629,2.03419701 C26.737268,2.23761671 25.5435412,1.33327084 25.3428067,0.607159374 C26.7709304,0.351044284 27.6677036,1.2225524 27.8951392,2.02402602 C28.2540773,2.27122939 28.6022397,2.53422201 28.9393402,2.81164773 C28.1220026,2.05444211 28.0406598,0.609193571 28.4436546,0 Z M18.75,2.54098361 C24.6870611,2.54098361 29.5,7.43282318 29.5,13.4672131 C29.5,19.501603 24.6870611,24.3934426 18.75,24.3934426 C12.8129389,24.3934426 8,19.501603 8,13.4672131 C8,7.43282318 12.8129389,2.54098361 18.75,2.54098361 Z M20.0940481,9.22130564 L16.2780481,9.22130564 L16.2780481,11.0213056 L17.8980481,11.0213056 L17.8980481,17.6333056 L20.0940481,17.6333056 L20.0940481,9.22130564 Z" id="形状结合"></path>
                    </g>
                </g>
            </g>
        </g>
    </g>
</svg>