<?xml version="1.0" encoding="UTF-8"?>
<svg width="37px" height="37px" viewBox="0 0 37 37" version="1.1" xmlns="http://www.w3.org/2000/svg" xmlns:xlink="http://www.w3.org/1999/xlink">
    <title>463de452-48ca-4a8e-aa60-b498f3dfc811备份</title>
    <defs>
        <rect id="path-1" x="0" y="0" width="36" height="36"></rect>
    </defs>
    <g id="light" stroke="none" stroke-width="1" fill="none" fill-rule="evenodd">
        <g id="首页" transform="translate(-982.000000, -55.000000)">
            <g id="463de452-48ca-4a8e-aa60-b498f3dfc811备份" transform="translate(982.073242, 55.978516)">
                <mask id="mask-2" fill="white">
                    <use xlink:href="#path-1"></use>
                </mask>
                <use id="蒙版" fill-opacity="0" fill="#D8D8D8" xlink:href="#path-1"></use>
                <g mask="url(#mask-2)">
                    <g transform="translate(18.073859, 17.021484) rotate(-45.000000) translate(-18.073859, -17.021484) translate(6.926758, 6.021484)">
                        <path d="M8.73255297,5.93830199 C8.73255297,5.93830199 3.98824547,5.34200328 0.480741604,8.43457962 C0.44627064,8.46505025 0.421673969,8.50500921 0.410072643,8.54944233 C0.398463572,8.59379832 0.400384218,8.64069995 0.415571269,8.68397596 C0.430766064,8.72732911 0.458545742,8.76520527 0.495386537,8.79274455 C0.532227331,8.82028383 0.576456421,8.83632912 0.622466755,8.83879763 C3.96423738,9.04784931 5.22659802,10.3044736 5.22659802,10.3044736" id="路径" fill="#814DED" fill-rule="nonzero"></path>
                        <path d="M10.7128328,15.8794422 C11.4725726,16.4255994 11.7320148,16.7850757 11.7320148,16.7850757 C11.7320148,16.7850757 12.9943754,18.0424714 13.2034781,21.3710988 C13.2059563,21.4169204 13.222065,21.4609678 13.249713,21.4976869 C13.277361,21.5344059 13.3153867,21.5620223 13.3588336,21.5772191 C13.402358,21.5923387 13.4493673,21.5941901 13.4939759,21.5826961 C13.5385845,21.571125 13.5787012,21.5465942 13.6092922,21.5122665 C16.7156287,18.0224148 16.1278178,13.3492226 16.1278178,13.3492226 C16.0639253,12.9287279 15.9268469,12.5225042 15.7227782,12.1489111" id="路径" fill="#814DED" fill-rule="nonzero"></path>
                        <g id="编组" opacity="0.7" style="mix-blend-mode: multiply;" stroke-width="1" fill="none" fill-rule="evenodd" transform="translate(0.402581, 5.892116)">
                            <path d="M8.32997206,0.0461864645 C8.32997206,0.0461864645 3.58566456,-0.550112241 0.0781606918,2.5424641 C0.0436897276,2.57293473 0.0190930566,2.61289369 0.00749173006,2.65732681 C-0.00411734103,2.7016828 -0.00219669418,2.74858443 0.0129903561,2.79186044 C0.028185151,2.83521359 0.0559648294,2.87308975 0.092805624,2.90062903 C0.129646419,2.92816831 0.173875508,2.9442136 0.219885842,2.94668211 C3.56165647,3.15573379 4.8240171,4.4123581 4.8240171,4.4123581" id="路径" fill="#814DED" fill-rule="nonzero"></path>
                        </g>
                        <g id="编组" opacity="0.7" style="mix-blend-mode: multiply;" stroke-width="1" fill="none" fill-rule="evenodd" transform="translate(10.712833, 12.148911)">
                            <path d="M0,3.7305311 C0.759739742,4.27668826 1.01918196,4.63616458 1.01918196,4.63616458 C1.01918196,4.63616458 2.28154259,5.8935603 2.49064527,9.22218761 C2.49312352,9.26800927 2.50923218,9.31205669 2.5368802,9.34877573 C2.56452822,9.38549477 2.60255393,9.4131112 2.64600082,9.42830794 C2.68952515,9.44342755 2.73653453,9.44527893 2.78114311,9.43378494 C2.82575168,9.42221381 2.86586842,9.39768303 2.89645936,9.36335535 C6.00279586,5.87350368 5.41498499,1.2003115 5.41498499,1.2003115 C5.35109251,0.779816768 5.21401408,0.373593096 5.00994535,0" id="路径" fill="#814DED" fill-rule="nonzero"></path>
                        </g>
                        <path d="M5.86474842,10.6724354 L5.59601275,11.6019826 L5.24131265,12.7452098 C5.06527917,13.3054838 5.04661482,13.9030167 5.18733318,14.4730876 C5.32812898,15.0431584 5.62288632,15.5639362 6.03977511,15.9789539 C6.45643156,16.3942031 6.97926571,16.6878011 7.5515875,16.8280432 C8.12390928,16.9682081 8.72380164,16.9496171 9.28628785,16.774276 L10.430157,16.4171139 L12.3058855,15.8532144" id="路径" fill="#9B6CFD" fill-rule="nonzero"></path>
                        <path d="M10.5532952,16.3399731 C10.7702973,16.555196 11.0557612,16.6883411 11.3606639,16.7164975 C11.6655666,16.7446539 11.9707791,16.6660474 12.2237933,16.4942547 C13.4582736,15.6526482 14.9645873,14.3613105 16.9169868,12.4158185 C20.5329143,8.81719819 22.2793089,4.22963234 21.9447446,0.269992946 C21.9400204,0.216457202 21.9167094,0.1662308 21.8788385,0.1279458 C21.8409677,0.0896608002 21.7908605,0.0656931407 21.7371908,0.0601698564 C17.7619165,-0.275392804 13.1562364,1.4664474 9.54030889,5.06815329 C7.58713495,7.01287391 6.28760051,8.51326328 5.4457686,9.74288829 C5.27329761,9.99490742 5.19438071,10.2989195 5.2226483,10.602623 C5.25091588,10.9063265 5.38458671,11.1906676 5.60065948,11.4068162 L10.5532952,16.3399731 Z" id="路径" fill="#9B6CFD" fill-rule="nonzero"></path>
                        <path d="M15.785509,9.44281042 C15.4631036,9.76402488 15.0522556,9.98271917 14.6050082,10.071354 C14.1577608,10.1599888 13.6942498,10.1144757 13.2729466,9.94067741 C12.8516435,9.7668791 12.4915222,9.47250964 12.2381981,9.09490522 C11.9848741,8.71722366 11.8496544,8.27320098 11.8496544,7.8189957 C11.8496544,7.36479043 11.9848741,6.92076774 12.2381981,6.54316332 C12.4915222,6.16548176 12.8516435,5.87111231 13.2729466,5.697314 C13.6942498,5.52351568 14.1577608,5.47800258 14.6050082,5.56663741 C15.0522556,5.65527224 15.4631036,5.87396652 15.785509,6.19518099 C15.9996456,6.40839827 16.1695609,6.66149738 16.2854967,6.9401301 C16.4014325,7.21876282 16.4610655,7.51737501 16.4610655,7.8189957 C16.4610655,8.12061639 16.4014325,8.41922859 16.2854967,8.69786131 C16.1695609,8.97649403 15.9996456,9.22959313 15.785509,9.44281042 L15.785509,9.44281042 Z" id="路径" fill="#FFC738" fill-rule="nonzero"></path>
                        <path d="M15.717357,1.00205953 C15.717357,1.00205953 15.8916092,2.66907312 17.6403272,4.41091332 C19.3890452,6.15275353 21.0123015,6.22835155 21.0123015,6.22835155 C21.0123015,6.22835155 22.2614965,3.15737465 21.9501658,0.268450129 C21.9449769,0.21482953 21.9212012,0.164687983 21.8828657,0.126665262 C21.8446077,0.0886502552 21.7941132,0.0651300126 21.7402887,0.0601698564 C18.6238843,-0.202109005 15.717357,1.00205953 15.717357,1.00205953 Z" id="路径" fill="#9B6CFD" fill-rule="nonzero"></path>
                        <path d="M4.82310729,20.332783 C4.00218565,21.1527902 1.96149837,21.7838023 0.260796562,21.9982538 C0.225047748,22.0026508 0.188772305,21.9987166 0.154820225,21.9867598 C0.120868145,21.974803 0.0901765185,21.9551321 0.0651693867,21.9292899 C0.0401545104,21.9034477 0.0215133936,21.8722057 0.0107097551,21.8380323 C-0.000101628008,21.8037817 -0.0027734956,21.7675255 0.00290325497,21.7321179 C0.275511195,19.9779352 0.83931398,18.0085295 1.66410789,17.1869795 C2.08386216,16.7743531 2.65045298,16.5437792 3.24019999,16.5456957 C3.83002444,16.5476362 4.39506635,16.7817587 4.81218748,17.197085 C5.22923116,17.6124884 5.46443295,18.1752308 5.46653702,18.7627355 C5.46853756,19.350163 5.23728549,19.9145254 4.82310729,20.332783 Z" id="路径" fill="#FFC738" fill-rule="nonzero"></path>
                        <g id="编组" opacity="0.5" style="mix-blend-mode: multiply;" stroke-width="1" fill="none" fill-rule="evenodd" transform="translate(11.849440, 5.523023)">
                            <path d="M1.0589705,4.22372243 C0.658190357,3.82374717 0.419580964,3.29070395 0.388680234,2.72649584 C0.357779505,2.16228772 0.536833356,1.60648796 0.89153346,1.16555091 C1.24631101,0.724536718 1.75171993,0.429318717 2.31134067,0.336286862 C2.87088395,0.243255007 3.44521932,0.35904341 3.92445168,0.661358368 C3.69428384,0.435258562 3.41888787,0.259840288 3.1162311,0.146674673 C2.81357433,0.0334319178 2.49039452,-0.0151668124 2.16767938,0.00411839797 C1.84496424,0.0233264675 1.5299162,0.110032773 1.24298086,0.258451753 C0.956045509,0.406870732 0.703650829,0.613762469 0.502215246,0.865627317 C0.300779663,1.11749216 0.154795013,1.40877598 0.0737096398,1.72050212 C-0.00737573332,2.03222826 -0.0217805847,2.35745405 0.0315793217,2.67512004 C0.0848617828,2.99270888 0.204669875,3.29564097 0.383104163,3.56416824 C0.561615896,3.83269551 0.794726663,4.06080098 1.06748949,4.23375074 L1.0589705,4.22372243 Z" id="路径" fill="#FE9A2D" fill-rule="nonzero"></path>
                        </g>
                        <g id="编组" opacity="0.7" style="mix-blend-mode: multiply;" stroke-width="1" fill="none" fill-rule="evenodd" transform="translate(1.075047, 17.032917)">
                            <path d="M3.50410751,2.68505324 C2.90622873,3.28058054 1.42547196,3.73879714 0.18944278,3.89462164 C0.163514048,3.89778441 0.137205832,3.8949302 0.112585928,3.88629043 C0.0879582788,3.87757351 0.0656927155,3.8633796 0.0475240158,3.84471151 C0.0293630607,3.82596629 0.0157946201,3.80336402 0.00790293001,3.77852467 C0,3.75376246 -0.00201008599,3.72745743 0.0020248213,3.70176953 C0.200285141,2.42663142 0.609971506,0.99566881 1.20939919,0.399370104 C1.52003284,0.129377159 1.92189722,-0.013024835 2.33390695,0.000937657301 C2.74591667,0.0149001496 3.13724847,0.184147156 3.42867565,0.474505284 C3.72018028,0.764786271 3.89009557,1.15457894 3.90411319,1.56496822 C3.91813081,1.9753575 3.77516654,2.37564132 3.50410751,2.68505324 L3.50410751,2.68505324 Z" id="路径" fill="#FFC738" fill-rule="nonzero"></path>
                        </g>
                        <g id="编组" opacity="0.3" style="mix-blend-mode: multiply;" stroke-width="1" fill="none" fill-rule="evenodd" transform="translate(5.217025, 1.002060)">
                            <path d="M10.5003316,0 C10.5003316,0 10.5491222,0.469016317 10.8565806,1.16945516 C9.1085596,2.12006175 7.50753007,3.31705619 6.10297962,4.72333373 C3.37612576,7.43946276 1.79081765,9.38032634 0.907165213,10.9262288 L0.383634055,10.4047567 C0.167561284,10.1886081 0.0338904593,9.90426693 0.00562287462,9.60056344 C-0.0226447101,9.29685995 0.0562721908,8.99284789 0.22874318,8.74082876 C1.0736729,7.51120375 2.37010953,6.01081438 4.32328346,4.06609376 C6.19049296,2.20314244 8.32488922,0.838520948 10.5003316,0 Z" id="路径" fill="#814DED" fill-rule="nonzero"></path>
                        </g>
                        <g id="编组" opacity="0.3" style="mix-blend-mode: multiply;" stroke-width="1" fill="none" fill-rule="evenodd" transform="translate(21.294203, 0.000000)">
                            <path d="M0.56,0.114 C0.374,0.102 0.188,0.094 0,0.086 C0.186,0.094 0.374,0.102 0.56,0.114 Z" id="路径" fill="#814DED" fill-rule="nonzero"></path>
                        </g>
                        <g id="编组" opacity="0.3" style="mix-blend-mode: multiply;" stroke-width="1" fill="none" fill-rule="evenodd" transform="translate(16.349312, 0.020724)">
                            <path d="M4.94489119,0.0164956037 C2.87400019,-0.0980080266 0.954902245,0.58492434 0,1 C1.67049809,0.251636987 3.35261299,-0.0806280113 4.94489119,0.0164956037 Z" id="路径" fill="#814DED" fill-rule="nonzero"></path>
                        </g>
                        <g id="编组" opacity="0.5" style="mix-blend-mode: multiply;" stroke-width="1" fill="none" fill-rule="evenodd" transform="translate(15.717357, 0.023968)">
                            <path d="M6.21344745,0.183540669 C4.26956697,0.451219389 2.27379805,1.10923077 0.356249013,2.1475465 C0.0464672625,1.44710765 0,0.978091338 0,0.978091338 L0.0139401788,0.972691479 C0.188966868,0.906350355 0.363993556,0.842323456 0.539020245,0.7821536 L0.630405861,0.752068672 C1.61860964,0.428077137 3.63916111,-0.112680163 5.79214427,0.0207734934 C5.80840781,0.0207734934 5.82544581,0.0207734934 5.84170935,0.0207734934 C5.89979343,0.0207734934 5.95787751,0.0284875775 6.01518713,0.033116028 C6.05917614,0.0368419307 6.10115157,0.0529720807 6.1363118,0.0796088133 C6.17139458,0.10625326 6.1981907,0.142301175 6.21344745,0.183540669 Z" id="路径" fill="#814DED" fill-rule="nonzero"></path>
                        </g>
                        <path d="M16.2579261,0.805350386 C16.0828994,0.865520243 15.9078728,0.929547141 15.7328461,0.995888265 C15.7847345,0.975060238 15.9690547,0.901776438 16.2579261,0.805350386 Z" id="路径" fill="#92140C" fill-rule="nonzero"></path>
                    </g>
                </g>
            </g>
        </g>
    </g>
</svg>