<?xml version="1.0" encoding="UTF-8"?>
<svg width="22px" height="22px" viewBox="0 0 22 22" version="1.1" xmlns="http://www.w3.org/2000/svg" xmlns:xlink="http://www.w3.org/1999/xlink">
    <title>矩形备份 16</title>
    <g id="1.首页相关" stroke="none" stroke-width="1" fill="none" fill-rule="evenodd">
        <g id="Home-1920" transform="translate(-857.000000, -1664.000000)">
            <g id="矩形备份-16" transform="translate(856.999990, 1663.999990)">
                <path d="M8.07510494,0.0836763346 C7.42403785,0.258121741 6.87605245,0.691625994 6.55558506,1.27859547 L6.47391929,1.44240365 C6.23325813,1.97381769 5.70477349,2.30917646 5.1302277,2.30888306 L4.98577155,2.30173617 C4.25427314,2.22956053 3.52879503,2.48901181 3.00887093,3.00879031 C2.53227384,3.48525393 2.27437555,4.13450129 2.29014783,4.80295585 L2.30127589,4.98562246 C2.3585415,5.56631622 2.06856636,6.12094062 1.57090544,6.40795336 L1.44224419,6.47399152 C0.772585931,6.77727066 0.273980414,7.36484993 0.0836763346,8.07510494 C-0.0907690717,8.72617204 0.0106787796,9.41749125 0.358787827,9.98850142 L0.459820263,10.141128 C0.797053142,10.6117538 0.825155882,11.2315575 0.544033469,11.7271788 L0.459696909,11.859064 C0.031403953,12.4565016 -0.106627745,13.2146599 0.0836763346,13.9249149 C0.258121741,14.575982 0.691625994,15.1239674 1.27859547,15.4444348 L1.44240365,15.5261006 C1.97381769,15.7667617 2.30917646,16.2952464 2.30888306,16.8697922 L2.30173617,17.0142483 C2.22956053,17.7457467 2.48901181,18.4712248 3.00879031,18.9911489 C3.48525393,19.467746 4.13450129,19.7256443 4.80295585,19.709872 L4.98562246,19.698744 C5.56631622,19.6414784 6.12094062,19.9314535 6.40795336,20.4291144 L6.47399152,20.5577757 C6.77727066,21.2274339 7.36484993,21.7260395 8.07510494,21.9163435 C8.72617204,22.0907889 9.41749125,21.9893411 9.98850142,21.641232 L10.141128,21.5401996 C10.6117538,21.2029667 11.2315575,21.174864 11.7271788,21.4559864 L11.859064,21.540323 C12.4565016,21.9686159 13.2146599,22.1066476 13.9249149,21.9163435 C14.575982,21.7418981 15.1239674,21.3083939 15.4444348,20.7214244 L15.5261006,20.5576162 C15.7667617,20.0262022 16.2952464,19.6908434 16.8697922,19.6911368 L17.0142483,19.6982837 C17.7457467,19.7704593 18.4712248,19.5110081 18.9911489,18.9912296 C19.467746,18.5147659 19.7256443,17.8655186 19.709872,17.197064 L19.698744,17.0143974 C19.6414784,16.4337037 19.9314535,15.8790793 20.4291144,15.5920665 L20.5577757,15.5260283 C21.2274339,15.2227492 21.7260395,14.6351699 21.9163435,13.9249149 C22.0907889,13.2738478 21.9893411,12.5825286 21.641232,12.0115184 L21.5401996,11.8588919 C21.2029667,11.3882661 21.174864,10.7684624 21.4559864,10.272841 L21.540323,10.1409559 C21.9686159,9.54351832 22.1066476,8.78535995 21.9163435,8.07510494 C21.7418981,7.42403785 21.3083939,6.87605245 20.7214244,6.55558506 L20.5576162,6.47391929 C20.0262022,6.23325813 19.6908434,5.70477349 19.6911368,5.1302277 L19.6982837,4.98577155 C19.7704593,4.25427314 19.5110081,3.52879503 18.9912296,3.00887093 C18.5147659,2.53227384 17.8655186,2.27437555 17.197064,2.29014783 L17.0143974,2.30127589 C16.4337037,2.3585415 15.8790793,2.06856636 15.5920665,1.57090544 L15.5260283,1.44224419 C15.2227492,0.772585931 14.6351699,0.273980414 13.9249149,0.0836763346 C13.2738478,-0.0907690717 12.5825286,0.0106787796 12.0115184,0.358787827 L11.8588919,0.459820263 C11.3882661,0.797053142 10.7684624,0.825155882 10.272841,0.544033469 L10.1409559,0.459696909 C9.54351832,0.031403953 8.78535995,-0.106627745 8.07510494,0.0836763346 Z M13.6661063,1.04960494 C14.0403146,1.14986946 14.357071,1.39451903 14.549123,1.726485 L14.6151657,1.85495373 C15.0270439,2.76398176 15.9408788,3.33099393 16.926725,3.30779736 L17.1123101,3.2964709 C17.5459747,3.25380462 17.9759391,3.40770777 18.2840238,3.71587868 C18.5578768,3.98980839 18.7098122,4.36000403 18.7101435,4.74345603 L18.7031034,4.88770979 C18.6052298,5.88098005 19.1131879,6.82904339 19.9786609,7.30187282 L20.1450661,7.38485421 C20.5420824,7.56465751 20.8376173,7.9129292 20.9504149,8.33391361 C21.0632125,8.75489802 20.981398,9.20427585 20.7274658,9.55849277 C20.1099282,10.4202982 20.1099282,11.5797217 20.7274658,12.4415271 C20.981398,12.795744 21.0632125,13.2451218 20.9504149,13.6661063 C20.8501504,14.0403146 20.6055008,14.357071 20.2735349,14.549123 L20.1450661,14.6151657 C19.2360381,15.0270439 18.6690259,15.9408788 18.6922225,16.926725 L18.703549,17.1123101 C18.7462152,17.5459747 18.5923121,17.9759391 18.2841412,18.2840238 C18.0102115,18.5578768 17.6400158,18.7098122 17.2565638,18.7101435 L17.1123101,18.7031034 C16.1190398,18.6052298 15.1709765,19.1131879 14.698147,19.9786609 L14.6151657,20.1450661 C14.4353624,20.5420824 14.0870907,20.8376173 13.6661063,20.9504149 C13.2451218,21.0632125 12.795744,20.981398 12.4415271,20.7274658 C11.5797217,20.1099282 10.4202982,20.1099282 9.55849277,20.7274658 C9.20427585,20.981398 8.75489802,21.0632125 8.33391361,20.9504149 C7.95970525,20.8501504 7.64294891,20.6055008 7.45089686,20.2735349 L7.38485421,20.1450661 C6.97297594,19.2360381 6.05914108,18.6690259 5.07329487,18.6922225 L4.88770979,18.703549 C4.45404513,18.7462152 4.02408072,18.5923121 3.7159961,18.2841412 C3.44214311,18.0102115 3.29020767,17.6400158 3.28987633,17.2565638 L3.2969165,17.1123101 C3.39479005,16.1190398 2.88683192,15.1709765 2.02135892,14.698147 L1.85495373,14.6151657 C1.45793743,14.4353624 1.16240253,14.0870907 1.04960494,13.6661063 C0.936807355,13.2451218 1.0186219,12.795744 1.27255406,12.4415271 C1.89009163,11.5797217 1.89009163,10.4202982 1.27255406,9.55849277 C1.0186219,9.20427585 0.936807355,8.75489802 1.04960494,8.33391361 C1.14986946,7.95970525 1.39451903,7.64294891 1.726485,7.45089686 L1.85495373,7.38485421 C2.76398176,6.97297594 3.33099393,6.05914108 3.30779736,5.07329487 L3.2964709,4.88770979 C3.25380462,4.45404513 3.40770777,4.02408072 3.71587868,3.7159961 C3.98980839,3.44214311 4.36000403,3.29020767 4.74345603,3.28987633 L4.88770979,3.2969165 C5.88098005,3.39479005 6.82904339,2.88683192 7.30187282,2.02135892 L7.38485421,1.85495373 C7.56465751,1.45793743 7.9129292,1.16240253 8.33391361,1.04960494 C8.75489802,0.936807355 9.20427585,1.0186219 9.55849277,1.27255406 C10.4202982,1.89009163 11.5797217,1.89009163 12.4415271,1.27255406 C12.795744,1.0186219 13.2451218,0.936807355 13.6661063,1.04960494 Z" id="蒙版" fill="#1B193F" fill-rule="nonzero"></path>
                <path d="M13.6661063,1.04960494 C14.0403146,1.14986946 14.357071,1.39451903 14.549123,1.726485 L14.6151657,1.85495373 C15.0270439,2.76398176 15.9408788,3.33099393 16.926725,3.30779736 L17.1123101,3.2964709 C17.5459747,3.25380462 17.9759391,3.40770777 18.2840238,3.71587868 C18.5578768,3.98980839 18.7098122,4.36000403 18.7101435,4.74345603 L18.7031034,4.88770979 C18.6052298,5.88098005 19.1131879,6.82904339 19.9786609,7.30187282 L20.1450661,7.38485421 C20.5420824,7.56465751 20.8376173,7.9129292 20.9504149,8.33391361 C21.0632125,8.75489802 20.981398,9.20427585 20.7274658,9.55849277 C20.1099282,10.4202982 20.1099282,11.5797217 20.7274658,12.4415271 C20.981398,12.795744 21.0632125,13.2451218 20.9504149,13.6661063 C20.8501504,14.0403146 20.6055008,14.357071 20.2735349,14.549123 L20.1450661,14.6151657 C19.2360381,15.0270439 18.6690259,15.9408788 18.6922225,16.926725 L18.703549,17.1123101 C18.7462152,17.5459747 18.5923121,17.9759391 18.2841412,18.2840238 C18.0102115,18.5578768 17.6400158,18.7098122 17.2565638,18.7101435 L17.1123101,18.7031034 C16.1190398,18.6052298 15.1709765,19.1131879 14.698147,19.9786609 L14.6151657,20.1450661 C14.4353624,20.5420824 14.0870907,20.8376173 13.6661063,20.9504149 C13.2451218,21.0632125 12.795744,20.981398 12.4415271,20.7274658 C11.5797217,20.1099282 10.4202982,20.1099282 9.55849277,20.7274658 C9.20427585,20.981398 8.75489802,21.0632125 8.33391361,20.9504149 C7.95970525,20.8501504 7.64294891,20.6055008 7.45089686,20.2735349 L7.38485421,20.1450661 C6.97297594,19.2360381 6.05914108,18.6690259 5.07329487,18.6922225 L4.88770979,18.703549 C4.45404513,18.7462152 4.02408072,18.5923121 3.7159961,18.2841412 C3.44214311,18.0102115 3.29020767,17.6400158 3.28987633,17.2565638 L3.2969165,17.1123101 C3.39479005,16.1190398 2.88683192,15.1709765 2.02135892,14.698147 L1.85495373,14.6151657 C1.45793743,14.4353624 1.16240253,14.0870907 1.04960494,13.6661063 C0.936807355,13.2451218 1.0186219,12.795744 1.27255406,12.4415271 C1.89009163,11.5797217 1.89009163,10.4202982 1.27255406,9.55849277 C1.0186219,9.20427585 0.936807355,8.75489802 1.04960494,8.33391361 C1.14986946,7.95970525 1.39451903,7.64294891 1.726485,7.45089686 L1.85495373,7.38485421 C2.76398176,6.97297594 3.33099393,6.05914108 3.30779736,5.07329487 L3.2964709,4.88770979 C3.25380462,4.45404513 3.40770777,4.02408072 3.71587868,3.7159961 C3.98980839,3.44214311 4.36000403,3.29020767 4.74345603,3.28987633 L4.88770979,3.2969165 C5.88098005,3.39479005 6.82904339,2.88683192 7.30187282,2.02135892 L7.38485421,1.85495373 C7.56465751,1.45793743 7.9129292,1.16240253 8.33391361,1.04960494 C8.75489802,0.936807355 9.20427585,1.0186219 9.55849277,1.27255406 C10.4202982,1.89009163 11.5797217,1.89009163 12.4415271,1.27255406 C12.795744,1.0186219 13.2451218,0.936807355 13.6661063,1.04960494 Z M10.4166495,7.75996054 L7.29699692,7.75996054 C7.22969356,7.75996054 7.19367205,7.81362242 7.22021422,7.87782502 L7.22021422,7.87782502 L9.9436302,14.6440126 C9.97396411,14.7110899 10.0393716,14.7561276 10.1133105,14.7599605 L10.1133105,14.7599605 L11.1370798,14.7599605 C11.2138625,14.7551693 11.2849576,14.7168394 11.3304585,14.6545533 L11.3304585,14.6545533 L15.6947492,7.86632605 C15.7317186,7.80787293 15.7051765,7.75996054 15.6359772,7.76187704 L15.6359772,7.76187704 L13.3827368,7.76187704 C13.3059541,7.76666828 13.2358069,7.80499819 13.1903061,7.86728429 L13.1903061,7.86728429 L11.0584012,11.1933623 C11.0214318,11.2518154 10.9702433,11.2451077 10.945597,11.1818633 L10.945597,11.1818633 L10.0242046,8.75941297 C9.99955834,8.68466965 10.004298,8.60321859 10.0384237,8.53230825 L10.0384237,8.53230825 L10.4811091,7.87111729 C10.5152347,7.81074768 10.4849008,7.75996054 10.4166495,7.75996054 L10.4166495,7.75996054 Z" id="形状结合" fill="#5945DE"></path>
                <path d="M15.6947492,7.86632605 L11.3304585,14.6545533 C11.2849576,14.7168394 11.2138625,14.7551693 11.1370798,14.7599605 C10.9015621,14.7599605 10.7249238,14.7599605 10.6071649,14.7599605 C10.4974195,14.7599605 10.3328013,14.7599605 10.1133105,14.7599605 C10.0393716,14.7561276 9.97396411,14.7110899 9.9436302,14.6440126 L7.22021422,7.87782502 C7.19367205,7.81362242 7.22969356,7.75996054 7.29699692,7.75996054 L10.4166495,7.75996054 C10.4849008,7.75996054 10.5152347,7.81074768 10.4811091,7.87111729 L10.0384237,8.53230825 C10.004298,8.60321859 9.99955834,8.68466965 10.0242046,8.75941297 L10.945597,11.1818633 C10.9702433,11.2451077 11.0214318,11.2518154 11.0584012,11.1933623 L13.1903061,7.86728429 C13.2358069,7.80499819 13.3059541,7.76666828 13.3827368,7.76187704 L15.6359772,7.76187704 C15.7051765,7.75996054 15.7317186,7.80787293 15.6947492,7.86632605 Z" id="路径" fill="#E4E4FD" fill-rule="nonzero"></path>
            </g>
        </g>
    </g>
</svg>